<svg width="16" height="18" viewBox="0 0 16 18" fill="none" xmlns="http://www.w3.org/2000/svg">
<path d="M1.77778 18C1.28889 18 0.870519 17.8239 0.522667 17.4717C0.174815 17.1195 0.000592593 16.6956 0 16.2V3.6C0 3.105 0.174222 2.6814 0.522667 2.3292C0.871111 1.977 1.28948 1.8006 1.77778 1.8H5.51111C5.7037 1.26 6.02607 0.825 6.47822 0.495C6.93037 0.165 7.43763 0 8 0C8.56237 0 9.06993 0.165 9.52267 0.495C9.97541 0.825 10.2975 1.26 10.4889 1.8H14.2222C14.7111 1.8 15.1298 1.9764 15.4782 2.3292C15.8267 2.682 16.0006 3.1056 16 3.6V16.2C16 16.695 15.8261 17.1189 15.4782 17.4717C15.1304 17.8245 14.7117 18.0006 14.2222 18H1.77778ZM3.55556 14.4H9.77778V12.6H3.55556V14.4ZM3.55556 10.8H12.4444V9H3.55556V10.8ZM3.55556 7.2H12.4444V5.4H3.55556V7.2ZM8 2.925C8.19259 2.925 8.352 2.8611 8.47822 2.7333C8.60444 2.6055 8.66726 2.4444 8.66667 2.25C8.66607 2.0556 8.60296 1.8945 8.47733 1.7667C8.3517 1.6389 8.19259 1.575 8 1.575C7.80741 1.575 7.6483 1.6389 7.52267 1.7667C7.39704 1.8945 7.33393 2.0556 7.33333 2.25C7.33274 2.4444 7.39585 2.6058 7.52267 2.7342C7.64948 2.8626 7.80859 2.9262 8 2.925Z" fill="currentColor" fill-opacity="0.75"/>
</svg>
