<svg width="26" height="59" viewBox="0 0 26 59" fill="none" xmlns="http://www.w3.org/2000/svg">
<path d="M18.7788 28.6053C20.3469 28.9394 21.6066 29.7235 22.5577 30.9574C23.5089 32.1656 23.9845 33.5538 23.9845 35.1219C23.9845 37.3841 23.1876 39.1836 21.5937 40.5204C20.0256 41.8314 17.8277 42.4869 14.9999 42.4869H2.39073V15.4177H14.5758C17.3264 15.4177 19.4729 16.0475 21.0153 17.3071C22.5834 18.5667 23.3675 20.2762 23.3675 22.4356C23.3675 24.0294 22.9433 25.3533 22.095 26.4073C21.2724 27.4613 20.167 28.1939 18.7788 28.6053ZM8.98453 26.3688H13.3033C14.383 26.3688 15.2056 26.1374 15.7711 25.6747C16.3624 25.1862 16.658 24.4793 16.658 23.5539C16.658 22.6284 16.3624 21.9215 15.7711 21.4331C15.2056 20.9446 14.383 20.7004 13.3033 20.7004H8.98453V26.3688ZM13.8431 37.1656C14.9485 37.1656 15.7968 36.9214 16.3881 36.433C17.0051 35.9188 17.3135 35.1862 17.3135 34.235C17.3135 33.2839 16.9922 32.5384 16.3495 31.9986C15.7326 31.4587 14.8714 31.1888 13.766 31.1888H8.98453V37.1656H13.8431Z" fill="url(#paint0_linear_54_503)"/>
<defs>
<linearGradient id="paint0_linear_54_503" x1="0.452399" y1="56.8531" x2="24.9695" y2="56.8962" gradientUnits="userSpaceOnUse">
<stop stop-color="#4F61E8"/>
<stop offset="1" stop-color="#E924A1"/>
</linearGradient>
</defs>
</svg>
