<svg width="35" height="41" viewBox="0 0 35 41" fill="none" xmlns="http://www.w3.org/2000/svg">
<path d="M16.2874 40.6338C14.4706 40.6338 12.675 40.4225 10.9005 40C9.16825 39.5775 7.62613 38.9437 6.27413 38.0987C5.80938 37.7607 5.4925 37.2749 5.3235 36.6411C5.1545 35.9651 5.07 35.1624 5.07 34.2329C5.07 32.5851 5.38688 30.6416 6.02063 28.4024C6.65438 26.1209 7.45713 23.776 8.42888 21.3677C9.40063 18.9595 10.4146 16.678 11.4709 14.5232C12.5271 12.3685 13.4778 10.594 14.3228 9.19974C15.1255 7.97448 16.1184 7.12948 17.3014 6.66473C18.4844 6.15773 19.7308 5.90423 21.0405 5.90423C23.8713 5.90423 25.0754 6.15773 24.6529 6.66473C23.7656 7.67873 22.8361 9.00961 21.8644 10.6574C20.8926 12.3051 19.9843 13.9951 19.1393 15.7274C18.2943 17.4174 17.576 18.8961 16.9845 20.1636C15.5903 23.1211 14.365 26.0152 13.3088 28.846C12.2525 31.6345 11.5343 33.8949 11.154 35.6271C11.0695 35.9651 11.0273 36.2397 11.0273 36.451C11.0273 36.9157 11.1751 37.3382 11.4709 37.7185C11.7666 38.0565 12.2948 38.2889 13.0553 38.4156C13.351 38.4579 13.6256 38.5001 13.8791 38.5424C14.1749 38.5424 14.4706 38.5424 14.7664 38.5424C16.3719 38.5424 17.8506 38.141 19.2026 37.3382C20.5546 36.5355 21.3996 35.3736 21.7376 33.8526C21.8644 33.3456 21.9066 32.7964 21.8644 32.2049C21.8644 31.1909 21.7165 30.0712 21.4208 28.846C21.125 27.6207 20.6814 26.48 20.0899 25.4237C19.5406 24.3675 18.8224 23.5859 17.9351 23.0789C17.5126 22.8254 17.3014 22.5296 17.3014 22.1916C17.3014 21.8114 17.5338 21.579 17.9985 21.4945C19.0125 21.4945 20.0476 21.0931 21.1039 20.2904C22.2024 19.4876 23.1953 18.4314 24.0825 17.1216C25.012 15.8119 25.7514 14.3965 26.3006 12.8755C26.8921 11.3122 27.1879 9.81236 27.1879 8.37586C27.1879 6.34786 26.5753 4.95361 25.35 4.19311C24.167 3.39036 22.7516 2.98898 21.1039 2.98898C19.7096 2.98898 18.2731 3.20023 16.7944 3.62273C15.3156 4.00298 14.027 4.44661 12.9285 4.95361C10.5625 6.05211 8.57675 7.46749 6.97125 9.19974C5.408 10.932 4.49963 12.622 4.24613 14.2697C4.03488 14.1852 3.6335 14.0796 3.042 13.9529C2.4505 13.8261 1.859 13.5726 1.2675 13.1924C0.71825 12.8121 0.401375 12.2629 0.316875 11.5446C0.190125 10.0659 0.54925 8.75611 1.39425 7.61536C2.2815 6.43236 3.48563 5.43948 5.00663 4.63673C6.56988 3.79173 8.281 3.09461 10.14 2.54536C12.0413 1.99611 13.9636 1.59473 15.9071 1.34123C17.8506 1.08773 19.6674 0.96098 21.3574 0.96098C22.0756 0.96098 22.7516 0.982106 23.3854 1.02436C24.0191 1.06661 24.5895 1.12998 25.0965 1.21448C28.4765 1.76373 30.9059 2.86223 32.3846 4.50998C33.8634 6.11549 34.6028 7.91111 34.6028 9.89686C34.6028 11.6714 34.0746 13.4247 33.0184 15.157C31.9621 16.847 30.5045 18.2835 28.6455 19.4665C26.8288 20.6072 24.7374 21.241 22.3714 21.3677C24.8219 21.917 26.702 23.1 28.0118 24.9167C29.3638 26.6912 30.0398 28.6136 30.0398 30.6839C30.0398 32.4161 29.5328 34.085 28.5188 35.6905C27.5048 37.296 25.8781 38.5212 23.6389 39.3662C21.4419 40.2113 18.9914 40.6338 16.2874 40.6338Z" fill="url(#paint0_linear_1134_2216)"/>
<defs>
<linearGradient id="paint0_linear_1134_2216" x1="0.521999" y1="59.8592" x2="28.811" y2="59.9029" gradientUnits="userSpaceOnUse">
<stop stop-color="#4F61E8"/>
<stop offset="1" stop-color="#E924A1"/>
</linearGradient>
</defs>
</svg>
