<svg width="14" height="14" viewBox="0 0 14 14" fill="none" xmlns="http://www.w3.org/2000/svg">
<path d="M5.0714 2.6307C5.47007 1.46403 7.08207 1.4287 7.55474 2.5247L7.59474 2.63136L8.13274 4.2047C8.25603 4.56552 8.45527 4.8957 8.71702 5.17298C8.97877 5.45026 9.29694 5.66817 9.65007 5.81203L9.79474 5.86603L11.3681 6.40337C12.5347 6.80203 12.5701 8.41403 11.4747 8.8867L11.3681 8.9267L9.79474 9.4647C9.43379 9.58791 9.10348 9.78712 8.82608 10.0489C8.54869 10.3106 8.33067 10.6288 8.18674 10.982L8.13274 11.126L7.5954 12.7C7.19674 13.8667 5.58474 13.902 5.11274 12.8067L5.0714 12.7L4.53407 11.1267C4.41086 10.7658 4.21165 10.4354 3.9499 10.158C3.68814 9.88065 3.36993 9.66263 3.01674 9.5187L2.87274 9.4647L1.2994 8.92736C0.132069 8.5287 0.0967363 6.9167 1.19274 6.4447L1.2994 6.40337L2.87274 5.86603C3.23356 5.74274 3.56374 5.54349 3.84102 5.28174C4.11829 5.02 4.33621 4.70183 4.48007 4.3487L4.53407 4.2047L5.0714 2.6307ZM11.6667 0.332031C11.7915 0.332031 11.9137 0.367017 12.0195 0.433012C12.1253 0.499008 12.2105 0.593366 12.2654 0.705365L12.2974 0.783365L12.5307 1.46736L13.2154 1.7007C13.3404 1.74316 13.45 1.82177 13.5302 1.92657C13.6105 2.03137 13.6578 2.15764 13.6663 2.28938C13.6747 2.42111 13.6438 2.55239 13.5775 2.66656C13.5113 2.78073 13.4126 2.87266 13.2941 2.9307L13.2154 2.9627L12.5314 3.19603L12.2981 3.8807C12.2555 4.00565 12.1769 4.11516 12.072 4.19536C11.9672 4.27556 11.8409 4.32283 11.7092 4.33118C11.5774 4.33953 11.4462 4.30859 11.3321 4.24228C11.2179 4.17597 11.1261 4.07728 11.0681 3.9587L11.0361 3.8807L10.8027 3.1967L10.1181 2.96336C9.99308 2.9209 9.88351 2.84229 9.80325 2.73749C9.72299 2.63269 9.67564 2.50642 9.66722 2.37468C9.65879 2.24295 9.68967 2.11168 9.75592 1.99751C9.82218 1.88334 9.92084 1.79141 10.0394 1.73336L10.1181 1.70136L10.8021 1.46803L11.0354 0.783365C11.0804 0.651648 11.1654 0.537304 11.2786 0.456364C11.3918 0.375424 11.5276 0.331948 11.6667 0.332031Z" fill="#FFCD29"/>
</svg>
