<svg width="119" height="59" viewBox="0 0 119 59" fill="none" xmlns="http://www.w3.org/2000/svg">
<path d="M30.0352 22.0108V39.2771H26.7686V22.0108H30.0352ZM45.4657 26.3507V39.2771H42.1757V37.6438C41.7557 38.2038 41.2035 38.6471 40.5191 38.9738C39.8502 39.2849 39.1191 39.4404 38.3258 39.4404C37.3147 39.4404 36.4203 39.2304 35.6426 38.8104C34.8648 38.3749 34.2504 37.7449 33.7993 36.9205C33.3637 36.0805 33.1459 35.085 33.1459 33.9339V26.3507H36.4125V33.4672C36.4125 34.4939 36.6692 35.2872 37.1825 35.8472C37.6958 36.3916 38.3958 36.6638 39.2825 36.6638C40.1847 36.6638 40.8924 36.3916 41.4057 35.8472C41.9191 35.2872 42.1757 34.4939 42.1757 33.4672V26.3507H45.4657ZM60.7051 32.5339C60.7051 33.0006 60.6739 33.4206 60.6117 33.7939H51.1619C51.2397 34.7272 51.5664 35.4583 52.1419 35.9872C52.7175 36.5161 53.4252 36.7805 54.2652 36.7805C55.4785 36.7805 56.3418 36.2594 56.8551 35.2172H60.3784C60.0051 36.4616 59.2895 37.4883 58.2318 38.2971C57.174 39.0904 55.8752 39.4871 54.3352 39.4871C53.0908 39.4871 51.9708 39.2149 50.9753 38.6704C49.9953 38.1105 49.2253 37.3249 48.6653 36.3138C48.1209 35.3027 47.8487 34.1361 47.8487 32.8139C47.8487 31.4762 48.1209 30.3018 48.6653 29.2907C49.2098 28.2796 49.972 27.5018 50.952 26.9574C51.9319 26.413 53.0597 26.1407 54.3352 26.1407C55.5641 26.1407 56.6607 26.4052 57.6251 26.9341C58.6051 27.4629 59.3595 28.2174 59.8884 29.1973C60.4328 30.1618 60.7051 31.274 60.7051 32.5339ZM57.3218 31.6006C57.3062 30.7606 57.0029 30.0918 56.4118 29.594C55.8207 29.0807 55.0974 28.824 54.2419 28.824C53.433 28.824 52.7486 29.0729 52.1886 29.5707C51.6442 30.0529 51.3097 30.7295 51.1853 31.6006H57.3218ZM66.8926 29.034V35.2872C66.8926 35.7227 66.9937 36.0416 67.1959 36.2438C67.4137 36.4305 67.7715 36.5238 68.2693 36.5238H69.7859V39.2771H67.7326C64.9793 39.2771 63.6027 37.9394 63.6027 35.2639V29.034H62.0627V26.3507H63.6027V23.1541H66.8926V26.3507H69.7859V29.034H66.8926ZM79.4152 26.1641C80.3952 26.1641 81.2663 26.3818 82.0285 26.8174C82.7907 27.2374 83.3818 27.8674 83.8018 28.7074C84.2373 29.5318 84.4551 30.5273 84.4551 31.6939V39.2771H81.1885V32.1373C81.1885 31.1106 80.9318 30.3251 80.4185 29.7807C79.9052 29.2207 79.2052 28.9407 78.3186 28.9407C77.4164 28.9407 76.7008 29.2207 76.172 29.7807C75.6586 30.3251 75.402 31.1106 75.402 32.1373V39.2771H72.1354V22.0108H75.402V27.9607C75.822 27.4007 76.3819 26.9652 77.0819 26.6541C77.7819 26.3274 78.5597 26.1641 79.4152 26.1641ZM99.7645 26.3507V39.2771H96.4746V37.6438C96.0546 38.2038 95.5024 38.6471 94.8179 38.9738C94.1491 39.2849 93.418 39.4404 92.6247 39.4404C91.6136 39.4404 90.7191 39.2304 89.9414 38.8104C89.1636 38.3749 88.5492 37.7449 88.0981 36.9205C87.6626 36.0805 87.4448 35.085 87.4448 33.9339V26.3507H90.7114V33.4672C90.7114 34.4939 90.968 35.2872 91.4814 35.8472C91.9947 36.3916 92.6947 36.6638 93.5813 36.6638C94.4835 36.6638 95.1913 36.3916 95.7046 35.8472C96.2179 35.2872 96.4746 34.4939 96.4746 33.4672V26.3507H99.7645ZM106.254 28.2407C106.674 27.6185 107.25 27.1129 107.981 26.7241C108.727 26.3352 109.575 26.1407 110.524 26.1407C111.628 26.1407 112.624 26.413 113.511 26.9574C114.413 27.5018 115.121 28.2796 115.634 29.2907C116.163 30.2862 116.427 31.4451 116.427 32.7673C116.427 34.0894 116.163 35.2639 115.634 36.2905C115.121 37.3016 114.413 38.0871 113.511 38.6471C112.624 39.2071 111.628 39.4871 110.524 39.4871C109.56 39.4871 108.712 39.3004 107.981 38.9271C107.265 38.5382 106.69 38.0405 106.254 37.4338V39.2771H102.988V22.0108H106.254V28.2407ZM113.091 32.7673C113.091 31.9895 112.927 31.3206 112.601 30.7606C112.29 30.1851 111.87 29.7495 111.341 29.454C110.827 29.1585 110.267 29.0107 109.661 29.0107C109.07 29.0107 108.51 29.1662 107.981 29.4773C107.467 29.7729 107.047 30.2084 106.721 30.784C106.41 31.3595 106.254 32.0362 106.254 32.8139C106.254 33.5917 106.41 34.2683 106.721 34.8439C107.047 35.4194 107.467 35.8627 107.981 36.1738C108.51 36.4694 109.07 36.6172 109.661 36.6172C110.267 36.6172 110.827 36.4616 111.341 36.1505C111.87 35.8394 112.29 35.3961 112.601 34.8205C112.927 34.245 113.091 33.5606 113.091 32.7673Z" fill="url(#paint0_linear_27_382)"/>
<path d="M18.7788 28.6051C20.3469 28.9393 21.6066 29.7234 22.5577 30.9573C23.5089 32.1655 23.9845 33.5537 23.9845 35.1218C23.9845 37.384 23.1876 39.1835 21.5937 40.5202C20.0256 41.8313 17.8277 42.4868 14.9999 42.4868H2.39073V15.4175H14.5758C17.3264 15.4175 19.4729 16.0474 21.0153 17.307C22.5834 18.5666 23.3675 20.2761 23.3675 22.4355C23.3675 24.0293 22.9433 25.3532 22.095 26.4072C21.2724 27.4612 20.167 28.1938 18.7788 28.6051ZM8.98453 26.3686H13.3033C14.383 26.3686 15.2056 26.1373 15.7711 25.6746C16.3624 25.1861 16.658 24.4792 16.658 23.5537C16.658 22.6283 16.3624 21.9214 15.7711 21.4329C15.2056 20.9445 14.383 20.7003 13.3033 20.7003H8.98453V26.3686ZM13.8431 37.1655C14.9485 37.1655 15.7968 36.9213 16.3881 36.4329C17.0051 35.9187 17.3135 35.1861 17.3135 34.2349C17.3135 33.2838 16.9922 32.5383 16.3495 31.9984C15.7326 31.4586 14.8714 31.1887 13.766 31.1887H8.98453V37.1655H13.8431Z" fill="url(#paint1_linear_27_382)"/>
<defs>
<linearGradient id="paint0_linear_27_382" x1="26.7769" y1="47.2912" x2="114.463" y2="48.2045" gradientUnits="userSpaceOnUse">
<stop stop-color="#4F61E8"/>
<stop offset="1" stop-color="#E924A1"/>
</linearGradient>
<linearGradient id="paint1_linear_27_382" x1="0.452399" y1="56.853" x2="24.9695" y2="56.8961" gradientUnits="userSpaceOnUse">
<stop stop-color="#4F61E8"/>
<stop offset="1" stop-color="#E924A1"/>
</linearGradient>
</defs>
</svg>
