<svg width="134" height="69" viewBox="0 0 134 69" fill="none" xmlns="http://www.w3.org/2000/svg">
<path d="M36.8625 26.7669V45.8711H33.2481V26.7669H36.8625ZM53.9355 31.5687V45.8711H50.2953V44.0639C49.8306 44.6835 49.2196 45.174 48.4624 45.5355C47.7223 45.8797 46.9134 46.0518 46.0356 46.0518C44.9169 46.0518 43.9272 45.8195 43.0667 45.3548C42.2061 44.8729 41.5263 44.1758 41.0272 43.2636C40.5453 42.3342 40.3043 41.2327 40.3043 39.9591V31.5687H43.9186V39.4428C43.9186 40.5787 44.2026 41.4565 44.7706 42.0761C45.3385 42.6784 46.113 42.9796 47.0941 42.9796C48.0923 42.9796 48.8754 42.6784 49.4434 42.0761C50.0113 41.4565 50.2953 40.5787 50.2953 39.4428V31.5687H53.9355ZM70.7971 38.4101C70.7971 38.9264 70.7627 39.3911 70.6938 39.8042H60.2381C60.3242 40.8369 60.6856 41.6458 61.3224 42.231C61.9592 42.8161 62.7423 43.1087 63.6717 43.1087C65.0142 43.1087 65.9694 42.5322 66.5374 41.379H70.4357C70.0226 42.7559 69.2309 43.8918 68.0605 44.7868C66.8902 45.6646 65.4531 46.1034 63.7492 46.1034C62.3723 46.1034 61.1331 45.8022 60.0316 45.1999C58.9473 44.5803 58.0954 43.7111 57.4758 42.5924C56.8734 41.4737 56.5722 40.1828 56.5722 38.7199C56.5722 37.2398 56.8734 35.9403 57.4758 34.8216C58.0781 33.7029 58.9215 32.8423 60.0058 32.24C61.0901 31.6376 62.3379 31.3364 63.7492 31.3364C65.1088 31.3364 66.3222 31.629 67.3893 32.2141C68.4736 32.7993 69.3083 33.6341 69.8935 34.7183C70.4959 35.7854 70.7971 37.016 70.7971 38.4101ZM67.0537 37.3775C67.0365 36.4481 66.7009 35.708 66.0468 35.1572C65.3928 34.5893 64.5925 34.3053 63.6459 34.3053C62.7509 34.3053 61.9936 34.5807 61.3741 35.1314C60.7717 35.665 60.4016 36.4136 60.2639 37.3775H67.0537ZM77.6433 34.5376V41.4565C77.6433 41.9384 77.7552 42.2912 77.9789 42.5149C78.2199 42.7215 78.6157 42.8247 79.1665 42.8247H80.8446V45.8711H78.5727C75.5264 45.8711 74.0032 44.3909 74.0032 41.4306V34.5376H72.2993V31.5687H74.0032V28.0319H77.6433V31.5687H80.8446V34.5376H77.6433ZM91.4989 31.3622C92.5832 31.3622 93.547 31.6032 94.3904 32.0851C95.2337 32.5498 95.8877 33.2468 96.3524 34.1762C96.8343 35.0884 97.0753 36.1899 97.0753 37.4807V45.8711H93.461V37.9712C93.461 36.8353 93.177 35.9661 92.609 35.3638C92.0411 34.7442 91.2666 34.4344 90.2856 34.4344C89.2873 34.4344 88.4956 34.7442 87.9104 35.3638C87.3425 35.9661 87.0585 36.8353 87.0585 37.9712V45.8711H83.4442V26.7669H87.0585V33.3501C87.5232 32.7305 88.1428 32.2486 88.9173 31.9043C89.6918 31.5429 90.5523 31.3622 91.4989 31.3622ZM114.014 31.5687V45.8711H110.374V44.0639C109.91 44.6835 109.299 45.174 108.541 45.5355C107.801 45.8797 106.992 46.0518 106.115 46.0518C104.996 46.0518 104.006 45.8195 103.146 45.3548C102.285 44.8729 101.605 44.1758 101.106 43.2636C100.624 42.3342 100.383 41.2327 100.383 39.9591V31.5687H103.998V39.4428C103.998 40.5787 104.282 41.4565 104.85 42.0761C105.417 42.6784 106.192 42.9796 107.173 42.9796C108.171 42.9796 108.954 42.6784 109.522 42.0761C110.09 41.4565 110.374 40.5787 110.374 39.4428V31.5687H114.014ZM121.195 33.6599C121.66 32.9714 122.296 32.4121 123.105 31.9818C123.931 31.5515 124.869 31.3364 125.919 31.3364C127.141 31.3364 128.243 31.6376 129.224 32.24C130.222 32.8423 131.005 33.7029 131.573 34.8216C132.158 35.9231 132.451 37.2053 132.451 38.6683C132.451 40.1312 132.158 41.4306 131.573 42.5666C131.005 43.6853 130.222 44.5545 129.224 45.174C128.243 45.7936 127.141 46.1034 125.919 46.1034C124.852 46.1034 123.914 45.8969 123.105 45.4838C122.314 45.0536 121.677 44.5028 121.195 43.8316V45.8711H117.58V26.7669H121.195V33.6599ZM128.759 38.6683C128.759 37.8077 128.578 37.0677 128.217 36.4481C127.873 35.8112 127.408 35.3293 126.823 35.0023C126.255 34.6753 125.635 34.5118 124.964 34.5118C124.31 34.5118 123.69 34.6839 123.105 35.0281C122.537 35.3552 122.073 35.8371 121.711 36.4739C121.367 37.1107 121.195 37.8594 121.195 38.7199C121.195 39.5805 121.367 40.3291 121.711 40.966C122.073 41.6028 122.537 42.0933 123.105 42.4375C123.69 42.7645 124.31 42.928 124.964 42.928C125.635 42.928 126.255 42.7559 126.823 42.4117C127.408 42.0675 127.873 41.5769 128.217 40.9401C128.578 40.3033 128.759 39.546 128.759 38.6683Z" fill="url(#paint0_linear_831_1234)"/>
<path d="M14.7788 49.575C13.1303 49.575 11.501 49.3834 9.89085 49C8.31905 48.6166 6.91976 48.0416 5.69299 47.2749C5.27129 46.9682 4.98376 46.5273 4.83041 45.9522C4.67707 45.3389 4.60039 44.6105 4.60039 43.7671C4.60039 42.2719 4.88792 40.5084 5.46297 38.4766C6.03802 36.4064 6.76641 34.2787 7.64816 32.0936C8.5299 29.9084 9.44998 27.8382 10.4084 25.883C11.3668 23.9279 12.2294 22.3177 12.9961 21.0526C13.7245 19.9408 14.6254 19.1741 15.6988 18.7524C16.7723 18.2924 17.9032 18.0623 19.0916 18.0623C21.6602 18.0623 22.7528 18.2924 22.3694 18.7524C21.5643 19.6725 20.7209 20.8801 19.8392 22.3752C18.9575 23.8703 18.1332 25.4038 17.3665 26.9756C16.5998 28.5091 15.948 29.8509 15.4113 31.001C14.1462 33.6845 13.0345 36.3106 12.076 38.8791C11.1176 41.4093 10.4659 43.4604 10.1209 45.0322C10.0442 45.3389 10.0059 45.588 10.0059 45.7797C10.0059 46.2014 10.14 46.5848 10.4084 46.9298C10.6767 47.2365 11.156 47.4474 11.846 47.5624C12.1144 47.6007 12.3636 47.639 12.5936 47.6774C12.8619 47.6774 13.1303 47.6774 13.3986 47.6774C14.8554 47.6774 16.1972 47.3132 17.424 46.5848C18.6508 45.8564 19.4175 44.8021 19.7242 43.422C19.8392 42.962 19.8775 42.4636 19.8392 41.9269C19.8392 41.0068 19.705 39.9909 19.4367 38.8791C19.1683 37.7674 18.7658 36.7323 18.2291 35.7739C17.7307 34.8154 17.079 34.1062 16.2739 33.6462C15.8905 33.4162 15.6988 33.1478 15.6988 32.8411C15.6988 32.4961 15.9097 32.2852 16.3314 32.2086C17.2515 32.2086 18.1907 31.8444 19.1491 31.116C20.1459 30.3876 21.0468 29.4292 21.8519 28.2407C22.6953 27.0523 23.3662 25.768 23.8645 24.3879C24.4013 22.9694 24.6696 21.6085 24.6696 20.305C24.6696 18.4649 24.1137 17.1998 23.002 16.5097C21.9285 15.7813 20.6443 15.4171 19.1491 15.4171C17.884 15.4171 16.5806 15.6088 15.2388 15.9922C13.897 16.3372 12.7278 16.7397 11.731 17.1998C9.58416 18.1965 7.78233 19.4808 6.32554 21.0526C4.90709 22.6244 4.08285 24.1579 3.85283 25.653C3.66115 25.5763 3.29695 25.4805 2.76024 25.3655C2.22352 25.2505 1.68681 25.0204 1.1501 24.6754C0.651723 24.3304 0.364198 23.832 0.287525 23.1803C0.172515 21.8385 0.498376 20.6501 1.26511 19.615C2.07018 18.5416 3.16277 17.6406 4.54289 16.9122C5.96134 16.1455 7.51398 15.513 9.20079 15.0146C10.9259 14.5162 12.6703 14.152 14.4337 13.922C16.1972 13.692 17.8457 13.577 19.3792 13.577C20.0309 13.577 20.6443 13.5961 21.2193 13.6345C21.7944 13.6728 22.3119 13.7303 22.772 13.807C25.8389 14.3054 28.0432 15.3021 29.385 16.7972C30.7268 18.254 31.3977 19.8833 31.3977 21.6852C31.3977 23.2953 30.9185 24.8863 29.9601 26.4581C29.0017 27.9915 27.679 29.295 25.9922 30.3684C24.3438 31.4035 22.4461 31.9785 20.2992 32.0936C22.5228 32.5919 24.2287 33.6654 25.4172 35.3138C26.644 36.924 27.2573 38.6683 27.2573 40.5468C27.2573 42.1186 26.7973 43.6329 25.8772 45.0897C24.9571 46.5465 23.4812 47.6582 21.4493 48.425C19.4558 49.1917 17.2323 49.575 14.7788 49.575Z" fill="url(#paint1_linear_831_1234)"/>
<path d="M38.5611 19.0536L43.1002 21.7758L49.9056 17.6926L43.1002 13.6094L36.2949 17.6926H43.1002V19.0536H38.5611ZM36.2949 19.0536V24.4979L37.656 22.9871V19.8703L36.2949 19.0536ZM43.1002 27.22L39.6976 25.1784L38.3365 24.3618V20.2786L43.1002 23.1368L47.864 20.2786V24.3618L43.1002 27.22Z" fill="#6C30D4"/>
<defs>
<linearGradient id="paint0_linear_831_1234" x1="33.2416" y1="54.7725" x2="129.414" y2="55.7585" gradientUnits="userSpaceOnUse">
<stop stop-color="#4F61E8"/>
<stop offset="1" stop-color="#E924A1"/>
</linearGradient>
<linearGradient id="paint1_linear_831_1234" x1="0.487199" y1="67.0563" x2="26.8902" y2="67.0983" gradientUnits="userSpaceOnUse">
<stop stop-color="#4F61E8"/>
<stop offset="1" stop-color="#E924A1"/>
</linearGradient>
</defs>
</svg>
