<svg width="22" height="22" viewBox="0 0 22 22" fill="none" xmlns="http://www.w3.org/2000/svg">
<path d="M16.0806 3.52492V1.42456M6.62903 3.52492V1.42456M2.16577 6.67546H20.5439M1.90323 8.82202C1.90323 6.60089 1.90323 5.4898 2.36111 4.64126C2.77514 3.8844 3.41758 3.2776 4.19682 2.90741C5.09577 2.47474 6.27197 2.47474 8.62437 2.47474H14.0853C16.4377 2.47474 17.6139 2.47474 18.5129 2.90741C19.3036 3.28758 19.9453 3.89458 20.3486 4.64021C20.8065 5.49085 20.8065 6.60194 20.8065 8.82307V13.9816C20.8065 16.2027 20.8065 17.3138 20.3486 18.1623C19.9345 18.9192 19.2921 19.526 18.5129 19.8962C17.6139 20.3278 16.4377 20.3278 14.0853 20.3278H8.62437C6.27197 20.3278 5.09577 20.3278 4.19682 19.8951C3.41774 19.5252 2.77531 18.9188 2.36111 18.1623C1.90323 17.3117 1.90323 16.2006 1.90323 13.9795V8.82202Z" stroke="#292382" stroke-opacity="0.5" stroke-width="2.10036" stroke-linecap="round" stroke-linejoin="round"/>
</svg>
