<svg width="22" height="18" viewBox="0 0 22 18" fill="none" xmlns="http://www.w3.org/2000/svg">
<path fill-rule="evenodd" clip-rule="evenodd" d="M0.802856 0.767578V17.1037H13.8641V15.9368H1.96971V1.93444H17.7223V3.17131H18.8891V0.767578H0.802856ZM18.8891 6.60189C18.8891 6.91136 18.7662 7.20816 18.5474 7.42699C18.3285 7.64582 18.0317 7.76875 17.7223 7.76875C17.4128 7.76875 17.116 7.64582 16.8972 7.42699C16.6784 7.20816 16.5554 6.91136 16.5554 6.60189C16.5554 6.29242 16.6784 5.99562 16.8972 5.77679C17.116 5.55797 17.4128 5.43503 17.7223 5.43503C18.0317 5.43503 18.3285 5.55797 18.5474 5.77679C18.7662 5.99562 18.8891 6.29242 18.8891 6.60189ZM20.056 6.60189C20.056 7.22083 19.8101 7.81442 19.3725 8.25208C18.9348 8.68974 18.3412 8.93562 17.7223 8.93562C17.1033 8.93562 16.5097 8.68974 16.0721 8.25208C15.6344 7.81442 15.3886 7.22083 15.3886 6.60189C15.3886 5.98295 15.6344 5.38936 16.0721 4.9517C16.5097 4.51404 17.1033 4.26817 17.7223 4.26817C18.3412 4.26817 18.9348 4.51404 19.3725 4.9517C19.8101 5.38936 20.056 5.98295 20.056 6.60189Z" fill="#292382" fill-opacity="0.5"/>
<path fill-rule="evenodd" clip-rule="evenodd" d="M14.8606 1.25183C15.1859 0.941213 15.6184 0.767803 16.0683 0.767578H18.4498C19.3039 0.767578 20.0992 1.05813 20.7118 1.63689C21.301 2.19348 21.6079 2.90702 21.7333 3.58322C21.9305 4.64623 21.7263 5.80784 21.224 6.8376V11.5611C21.224 11.9271 21.0864 12.2797 20.8385 12.549C20.5906 12.8183 20.2505 12.9845 19.8857 13.0147C19.521 13.0449 19.1582 12.9368 18.8694 12.712C18.5806 12.4871 18.3869 12.1619 18.3267 11.8008L18.0152 9.93153L17.7036 11.8008C17.6434 12.1619 17.4497 12.4871 17.1609 12.712C16.8721 12.9368 16.5093 13.0449 16.1446 13.0147C15.7798 12.9845 15.4397 12.8183 15.1918 12.549C14.9439 12.2797 14.8063 11.9271 14.8063 11.5611V6.07272C14.5402 6.22635 14.2384 6.30724 13.9312 6.30726H10.9545C10.4903 6.30726 10.0451 6.12285 9.71687 5.79461C9.38863 5.46636 9.20422 5.02117 9.20422 4.55696C9.20422 4.09276 9.38863 3.64756 9.71687 3.31932C10.0451 2.99108 10.4903 2.80667 10.9545 2.80667H13.2299L14.8606 1.25183ZM15.9732 8.04588V11.5611C15.9734 11.6341 16.001 11.7045 16.0505 11.7582C16.1001 11.8118 16.168 11.845 16.2409 11.851C16.3137 11.857 16.3861 11.8355 16.4438 11.7906C16.5015 11.7458 16.5403 11.6809 16.5525 11.6089L17.161 7.95895C17.1837 7.82272 17.2539 7.69894 17.3592 7.60963C17.4646 7.52032 17.5982 7.47127 17.7363 7.4712H18.294C18.4321 7.47127 18.5657 7.52032 18.6711 7.60963C18.7764 7.69894 18.8466 7.82272 18.8693 7.95895L19.4778 11.6089C19.49 11.6809 19.5288 11.7458 19.5865 11.7906C19.6442 11.8355 19.7166 11.857 19.7894 11.851C19.8623 11.845 19.9302 11.8118 19.9798 11.7582C20.0293 11.7045 20.057 11.6341 20.0572 11.5611V6.69932C20.0571 6.60592 20.0795 6.51388 20.1225 6.43094C20.5729 5.56105 20.7368 4.60831 20.5863 3.79617C20.4947 3.30259 20.2806 2.83467 19.9107 2.4852C19.5332 2.12872 19.0327 1.93444 18.4498 1.93444H16.0688C15.9189 1.93444 15.7742 1.9922 15.6657 2.09547L13.8664 3.81192C13.758 3.91553 13.6138 3.97341 13.4638 3.97353H10.9545C10.7998 3.97353 10.6514 4.035 10.542 4.14442C10.4325 4.25383 10.3711 4.40223 10.3711 4.55696C10.3711 4.7117 10.4325 4.8601 10.542 4.96951C10.6514 5.07893 10.7998 5.1404 10.9545 5.1404H13.9312C14.0811 5.14027 14.2253 5.08239 14.3337 4.97878L14.9872 4.35568C15.0698 4.27687 15.1738 4.22406 15.2862 4.2038C15.3986 4.18353 15.5145 4.19671 15.6195 4.24168C15.7245 4.28666 15.8139 4.36146 15.8768 4.45681C15.9397 4.55216 15.9732 4.66387 15.9732 4.77808V8.04588Z" fill="#292382" fill-opacity="0.5"/>
</svg>
