<svg width="14" height="14" viewBox="0 0 14 14" fill="none" xmlns="http://www.w3.org/2000/svg">
<path d="M12.825 9.60545V4.39345C12.8247 4.1667 12.7647 3.94407 12.6511 3.7481C12.5374 3.55212 12.3743 3.38976 12.178 3.27745L7.64805 0.67245C7.45079 0.559435 7.22763 0.5 7.00055 0.5C6.77347 0.5 6.55031 0.559435 6.35305 0.67245L1.82205 3.27745C1.42205 3.50745 1.17505 3.93445 1.17505 4.39445V9.60645C1.17505 10.0665 1.42105 10.4925 1.82205 10.7225L6.35205 13.3274C6.5493 13.4405 6.77247 13.4999 6.99955 13.4999C7.22663 13.4999 7.44979 13.4405 7.64705 13.3274L12.178 10.7225C12.578 10.4915 12.825 10.0654 12.825 9.60545ZM6.99955 13.4999L7.00005 7.00045L6.99955 13.4999ZM7.00005 7.00045L12.65 3.72445L7.00005 7.00045ZM1.35005 3.72445L7.00005 7.00045L1.35005 3.72445Z" fill="#3A3A3A" fill-opacity="0.75"/>
<path d="M6.99955 13.4999C6.77247 13.4999 6.5493 13.4405 6.35205 13.3274L1.82205 10.7225C1.42105 10.4925 1.17505 10.0665 1.17505 9.60645V4.39445C1.17505 3.93445 1.42205 3.50745 1.82205 3.27745L6.35305 0.67245C6.55031 0.559435 6.77347 0.5 7.00055 0.5C7.22763 0.5 7.45079 0.559435 7.64805 0.67245L12.178 3.27745C12.3743 3.38976 12.5374 3.55212 12.6511 3.7481C12.7647 3.94407 12.8247 4.1667 12.825 4.39345V9.60545C12.825 10.0654 12.578 10.4915 12.178 10.7225L7.64705 13.3274C7.44979 13.4405 7.22663 13.4999 6.99955 13.4999ZM6.99955 13.4999L7.00005 7.00045M7.00005 7.00045L12.65 3.72445M7.00005 7.00045L1.35005 3.72445" stroke="#3A3A3A" stroke-opacity="0.75" stroke-linecap="round" stroke-linejoin="round"/>
</svg>
