<svg width="22" height="22" viewBox="0 0 22 22" fill="none" xmlns="http://www.w3.org/2000/svg">
<path d="M11.2545 13.4936L9.66754 12.1948C7.83274 10.7028 5.54916 9.70213 3.08642 9.31086V16.4184C6.13194 16.7661 8.92075 17.7887 11.2545 19.3023C13.5882 17.7887 16.377 16.7661 19.4225 16.4184V9.31086C16.9021 9.7097 14.6501 10.7324 12.8414 12.1948M19.4225 7.23485C20.181 7.13259 20.9628 7.08145 21.7563 7.08145V18.3307C17.6722 18.3307 14.0083 19.7113 11.2545 21.951C8.50067 19.7113 4.83672 18.3307 0.752686 18.3307V7.08145C1.54615 7.08145 2.32795 7.13259 3.08642 7.23485C6.22529 7.65415 9.03743 8.90179 11.2545 10.7017C13.4715 8.90179 16.2837 7.65415 19.4225 7.23485ZM11.2545 5.03613C11.5695 5.03613 11.8379 4.93386 12.083 4.73956C12.3047 4.5248 12.4213 4.28959 12.4213 4.01347C12.4213 3.73735 12.3047 3.50214 12.083 3.28738C11.8379 3.1033 11.5695 2.9908 11.2545 2.9908C10.9394 2.9908 10.671 3.1033 10.426 3.28738C10.216 3.50214 10.0876 3.74757 10.0876 4.01347C10.0876 4.27936 10.216 4.5248 10.426 4.73956C10.671 4.93386 10.9511 5.03613 11.2545 5.03613ZM13.7282 6.18151C13.0722 6.75651 12.1823 7.07955 11.2545 7.07955C10.3266 7.07955 9.4368 6.75651 8.78072 6.18151C8.12464 5.60651 7.75606 4.82664 7.75606 4.01347C7.75606 3.20029 8.12464 2.42042 8.78072 1.84542C9.10558 1.56071 9.49124 1.33486 9.91569 1.18078C10.3401 1.02669 10.7951 0.947388 11.2545 0.947388C11.7139 0.947388 12.1688 1.02669 12.5933 1.18078C13.0177 1.33486 13.4034 1.56071 13.7282 1.84542C14.0531 2.13013 14.3108 2.46813 14.4866 2.84013C14.6624 3.21212 14.7529 3.61082 14.7529 4.01347C14.7529 4.41611 14.6624 4.81481 14.4866 5.1868C14.3108 5.5588 14.0531 5.8968 13.7282 6.18151Z" fill="#292382" fill-opacity="0.5"/>
</svg>
