<svg width="29" height="30" viewBox="0 0 29 30" fill="none" xmlns="http://www.w3.org/2000/svg">
<rect width="28.764" height="30" rx="5" fill="#B8CBF8"/>
<path d="M19.7992 18.1054V12.8935C19.7988 12.6667 19.7413 12.4441 19.6324 12.2481C19.5234 12.0521 19.367 11.8898 19.1788 11.7774L14.8355 9.17245C14.6463 9.05944 14.4324 9 14.2146 9C13.9969 9 13.783 9.05944 13.5938 9.17245L9.2495 11.7774C8.86597 12.0074 8.62915 12.4344 8.62915 12.8944V18.1065C8.62915 18.5665 8.86502 18.9925 9.2495 19.2225L13.5929 21.8274C13.782 21.9405 13.996 21.9999 14.2137 21.9999C14.4314 21.9999 14.6454 21.9405 14.8345 21.8274L19.1788 19.2225C19.5624 18.9915 19.7992 18.5654 19.7992 18.1054ZM14.2137 21.9999L14.2142 15.5005L14.2137 21.9999ZM14.2142 15.5005L19.6314 12.2244L14.2142 15.5005ZM8.79694 12.2244L14.2142 15.5005L8.79694 12.2244Z" fill="#4F61E8"/>
<path d="M14.2137 21.9999C13.996 21.9999 13.782 21.9405 13.5929 21.8274L9.2495 19.2225C8.86502 18.9925 8.62915 18.5665 8.62915 18.1065V12.8944C8.62915 12.4344 8.86597 12.0074 9.2495 11.7774L13.5938 9.17245C13.783 9.05944 13.9969 9 14.2146 9C14.4324 9 14.6463 9.05944 14.8355 9.17245L19.1788 11.7774C19.367 11.8898 19.5234 12.0521 19.6324 12.2481C19.7413 12.4441 19.7988 12.6667 19.7992 12.8935V18.1054C19.7992 18.5654 19.5624 18.9915 19.1788 19.2225L14.8345 21.8274C14.6454 21.9405 14.4314 21.9999 14.2137 21.9999ZM14.2137 21.9999L14.2142 15.5005M14.2142 15.5005L19.6314 12.2244M14.2142 15.5005L8.79694 12.2244" stroke="#3A3A3A" stroke-opacity="0.75" stroke-linecap="round" stroke-linejoin="round"/>
</svg>
