<svg width="20" height="20" viewBox="0 0 20 20" fill="none" xmlns="http://www.w3.org/2000/svg">
<path opacity="0.3" d="M15.8333 8.33203C16.4964 8.33203 17.1323 8.59542 17.6011 9.06426C18.0699 9.53311 18.3333 10.169 18.3333 10.832V13.332C18.3333 13.9951 18.0699 14.631 17.6011 15.0998C17.1323 15.5686 16.4964 15.832 15.8333 15.832V16.637C15.8333 17.5204 14.8033 18.0029 14.125 17.437L12.1983 15.832H10C9.33696 15.832 8.70107 15.5686 8.23223 15.0998C7.76339 14.631 7.5 13.9951 7.5 13.332V10.832C7.5 10.169 7.76339 9.53311 8.23223 9.06426C8.70107 8.59542 9.33696 8.33203 10 8.33203H15.8333Z" fill="#3A3A3A" fill-opacity="0.75"/>
<path d="M13.3334 3.33203C13.9965 3.33203 14.6323 3.59542 15.1012 4.06426C15.57 4.53311 15.8334 5.16899 15.8334 5.83203V6.66536H9.16675C8.28269 6.66536 7.43485 7.01655 6.80973 7.64168C6.1846 8.2668 5.83342 9.11464 5.83342 9.9987V13.332C5.83342 14.202 6.16675 14.9954 6.71341 15.5887L5.83342 16.2487C5.14675 16.7637 4.16675 16.2737 4.16675 15.4154V14.1654C3.50371 14.1654 2.86782 13.902 2.39898 13.4331C1.93014 12.9643 1.66675 12.3284 1.66675 11.6654V5.83203C1.66675 5.16899 1.93014 4.53311 2.39898 4.06426C2.86782 3.59542 3.50371 3.33203 4.16675 3.33203H13.3334Z" fill="#3A3A3A" fill-opacity="0.75"/>
</svg>
