<svg width="26" height="23" viewBox="0 0 26 23" fill="none" xmlns="http://www.w3.org/2000/svg">
<path d="M7.18687 8.41369C7.02424 8.25107 6.93288 8.0305 6.93288 7.80052C6.93288 7.57054 7.02424 7.34998 7.18687 7.18735C7.34949 7.02473 7.57005 6.93337 7.80003 6.93337C8.03001 6.93337 8.25058 7.02473 8.4132 7.18735L12.1334 10.9086V1.73385C12.1334 1.504 12.2247 1.28356 12.3872 1.12103C12.5497 0.958497 12.7702 0.867188 13 0.867188C13.2299 0.867188 13.4503 0.958497 13.6129 1.12103C13.7754 1.28356 13.8667 1.504 13.8667 1.73385V10.9086L17.5869 7.18735C17.7495 7.02473 17.9701 6.93337 18.2 6.93337C18.43 6.93337 18.6506 7.02473 18.8132 7.18735C18.9758 7.34998 19.0672 7.57054 19.0672 7.80052C19.0672 8.0305 18.9758 8.25107 18.8132 8.41369L13.6132 13.6137C13.5327 13.6943 13.4371 13.7582 13.3319 13.8018C13.2267 13.8454 13.1139 13.8679 13 13.8679C12.8861 13.8679 12.7734 13.8454 12.6682 13.8018C12.5629 13.7582 12.4674 13.6943 12.3869 13.6137L7.18687 8.41369ZM25.1334 13.8672V20.8005C25.1334 21.2602 24.9507 21.7011 24.6257 22.0262C24.3006 22.3512 23.8597 22.5339 23.4 22.5339H2.60003C2.14032 22.5339 1.69944 22.3512 1.37438 22.0262C1.04932 21.7011 0.866699 21.2602 0.866699 20.8005V13.8672C0.866699 13.4075 1.04932 12.9666 1.37438 12.6415C1.69944 12.3165 2.14032 12.1339 2.60003 12.1339H8.2767C8.33362 12.1338 8.39 12.145 8.4426 12.1667C8.4952 12.1885 8.54301 12.2204 8.58328 12.2606L11.1584 14.8422C11.3999 15.0846 11.6869 15.2769 12.003 15.4081C12.319 15.5394 12.6578 15.6069 13 15.6069C13.3422 15.6069 13.6811 15.5394 13.9971 15.4081C14.3131 15.2769 14.6002 15.0846 14.8417 14.8422L17.42 12.2639C17.5 12.1822 17.6091 12.1355 17.7234 12.1339H23.4C23.8597 12.1339 24.3006 12.3165 24.6257 12.6415C24.9507 12.9666 25.1334 13.4075 25.1334 13.8672ZM20.8 17.3339C20.8 17.0767 20.7238 16.8254 20.5809 16.6116C20.4381 16.3978 20.2351 16.2312 19.9975 16.1328C19.76 16.0344 19.4986 16.0087 19.2464 16.0588C18.9942 16.109 18.7626 16.2328 18.5808 16.4146C18.399 16.5964 18.2752 16.8281 18.225 17.0802C18.1749 17.3324 18.2006 17.5938 18.299 17.8313C18.3974 18.0689 18.564 18.2719 18.7778 18.4148C18.9916 18.5576 19.2429 18.6339 19.5 18.6339C19.8448 18.6339 20.1755 18.4969 20.4193 18.2531C20.6631 18.0093 20.8 17.6786 20.8 17.3339Z" fill="currentColor"/>
</svg>