<svg width="22" height="22" viewBox="0 0 22 22" fill="none" xmlns="http://www.w3.org/2000/svg">
<path d="M19.6186 10.45V4.49895C19.6186 3.18622 19.0585 2.66113 17.667 2.66113H14.1314C12.7399 2.66113 12.1798 3.18622 12.1798 4.49895V10.45C12.1798 11.7627 12.7399 12.2878 14.1314 12.2878H17.667C19.0585 12.2878 19.6186 11.7627 19.6186 10.45Z" fill="#292382" fill-opacity="0.5"/>
<path d="M10.4295 12.3752V18.3262C10.4295 19.6389 9.8694 20.164 8.47791 20.164H4.94231C3.55082 20.164 2.99072 19.6389 2.99072 18.3262V12.3752C2.99072 11.0624 3.55082 10.5374 4.94231 10.5374H8.47791C9.8694 10.5374 10.4295 11.0624 10.4295 12.3752Z" fill="#292382" fill-opacity="0.5"/>
<path d="M19.6186 18.3261V15.8757C19.6186 14.5629 19.0585 14.0378 17.667 14.0378H14.1314C12.7399 14.0378 12.1798 14.5629 12.1798 15.8757V18.3261C12.1798 19.6388 12.7399 20.1639 14.1314 20.1639H17.667C19.0585 20.1639 19.6186 19.6388 19.6186 18.3261Z" fill="#292382" fill-opacity="0.5"/>
<path d="M10.4295 6.94936V4.49895C10.4295 3.18622 9.8694 2.66113 8.47791 2.66113H4.94231C3.55082 2.66113 2.99072 3.18622 2.99072 4.49895V6.94936C2.99072 8.26209 3.55082 8.78718 4.94231 8.78718H8.47791C9.8694 8.78718 10.4295 8.26209 10.4295 6.94936Z" fill="#292382" fill-opacity="0.5"/>
</svg>
