<svg width="19" height="20" viewBox="0 0 19 20" fill="none" xmlns="http://www.w3.org/2000/svg">
<path d="M9.12892 5.06709C10.4002 3.7958 11.0359 3.16016 11.8253 3.16016C12.6155 3.16016 13.2511 3.7958 14.5224 5.06709C15.7937 6.33838 16.4293 6.97403 16.4293 7.7642C16.4293 8.55362 15.7937 9.18927 14.5224 10.4606L11.3305 13.6532L5.93623 8.25902L9.12892 5.06709Z" fill="#292382"/>
<path d="M5.1293 9.06641L10.5228 14.4599L10.028 14.9547C9.7402 15.2432 9.48518 15.4982 9.253 15.7205H16.4293C16.5807 15.7205 16.726 15.7807 16.833 15.8877C16.9401 15.9948 17.0003 16.14 17.0003 16.2914C17.0003 16.4429 16.9401 16.5881 16.833 16.6952C16.726 16.8022 16.5807 16.8624 16.4293 16.8624H7.2943C6.52087 16.8434 5.88598 16.2077 4.63373 14.9554C3.36244 13.6842 2.72679 13.0485 2.72679 12.2583C2.72679 11.4689 3.36244 10.8333 4.63373 9.56198L5.1293 9.06641Z" fill="#292382"/>
</svg>
