<svg width="23" height="24" viewBox="0 0 23 24" fill="none" xmlns="http://www.w3.org/2000/svg">
<path d="M19.2465 6.9362C19.3029 6.61436 19.2881 6.28407 19.2033 5.96853C19.1185 5.65298 18.9657 5.35983 18.7555 5.10964C18.5453 4.85945 18.283 4.65829 17.9868 4.52028C17.6906 4.38227 17.3678 4.31075 17.0411 4.31075H5.56894C5.24219 4.31075 4.91941 4.38227 4.62324 4.52028C4.32707 4.65829 4.0647 4.85945 3.85454 5.10964C3.64438 5.35983 3.49153 5.65298 3.40671 5.96853C3.32189 6.28407 3.30716 6.61436 3.36356 6.9362M17.081 4.31075C17.1104 4.0377 17.1262 3.90223 17.1262 3.78986C17.1273 3.27075 16.9362 2.76961 16.5896 2.38311C16.2431 1.99661 15.7657 1.75214 15.2495 1.69685C15.1382 1.6853 15.0016 1.6853 14.7286 1.6853H7.88143C7.60839 1.6853 7.47081 1.6853 7.35949 1.69685C6.84333 1.75214 6.36593 1.99661 6.01938 2.38311C5.67283 2.76961 5.48169 3.27075 5.48282 3.78986C5.48282 3.90223 5.49753 4.03875 5.52798 4.31075" stroke="#292382" stroke-opacity="0.5" stroke-width="1.57527"/>
<path d="M14.4555 18.4876H8.15446M20.9603 17.2201C20.5928 19.8245 20.409 21.1278 19.467 21.9081C18.525 22.6884 17.1356 22.6884 14.3558 22.6884H8.25422C5.47545 22.6884 4.08501 22.6884 3.143 21.9081C2.20099 21.1278 2.01721 19.8256 1.64965 17.2201L1.20647 14.0695C0.737041 10.7468 0.502851 9.08644 1.49842 8.01C2.49399 6.93567 4.26669 6.93567 7.81 6.93567H14.8C18.3433 6.93567 20.116 6.93567 21.1116 8.01105C21.8982 8.86065 21.9171 10.0757 21.6587 12.1866" stroke="#292382" stroke-opacity="0.5" stroke-width="1.57527" stroke-linecap="round"/>
</svg>
