<svg width="24" height="23" viewBox="0 0 24 23" fill="none" xmlns="http://www.w3.org/2000/svg">
<path d="M7.58701 7.60425H16.9219M7.58701 12.2992H14.5882M19.2557 1.7356C20.1841 1.7356 21.0745 2.10658 21.731 2.76693C22.3875 3.42728 22.7563 4.32291 22.7563 5.25679V14.6466C22.7563 15.5805 22.3875 16.4761 21.731 17.1365C21.0745 17.7968 20.1841 18.1678 19.2557 18.1678H13.4213L7.58701 21.689V18.1678H5.25328C4.32487 18.1678 3.43448 17.7968 2.77799 17.1365C2.1215 16.4761 1.75269 15.5805 1.75269 14.6466V5.25679C1.75269 4.32291 2.1215 3.42728 2.77799 2.76693C3.43448 2.10658 4.32487 1.7356 5.25328 1.7356H19.2557Z" stroke="#292382" stroke-opacity="0.5" stroke-width="2.10036" stroke-linecap="round" stroke-linejoin="round"/>
</svg>
