<svg width="16" height="21" viewBox="0 0 16 21" fill="none" xmlns="http://www.w3.org/2000/svg">
<path d="M15 8C15.2652 8 15.5196 8.10536 15.7071 8.29289C15.8946 8.48043 16 8.73478 16 9C16.0002 10.9485 15.2893 12.8301 14.0006 14.2917C12.712 15.7532 10.9342 16.6942 9.001 16.938L9 19H12C12.2652 19 12.5196 19.1054 12.7071 19.2929C12.8946 19.4804 13 19.7348 13 20C13 20.2652 12.8946 20.5196 12.7071 20.7071C12.5196 20.8946 12.2652 21 12 21H4C3.73478 21 3.48043 20.8946 3.29289 20.7071C3.10536 20.5196 3 20.2652 3 20C3 19.7348 3.10536 19.4804 3.29289 19.2929C3.48043 19.1054 3.73478 19 4 19H7V16.938C5.06661 16.6944 3.28861 15.7535 1.99975 14.292C0.710897 12.8304 -0.000181694 10.9487 3.48244e-08 9C3.48244e-08 8.73478 0.105357 8.48043 0.292893 8.29289C0.48043 8.10536 0.734784 8 1 8C1.26522 8 1.51957 8.10536 1.70711 8.29289C1.89464 8.48043 2 8.73478 2 9C2 10.5913 2.63214 12.1174 3.75736 13.2426C4.88258 14.3679 6.4087 15 8 15C9.5913 15 11.1174 14.3679 12.2426 13.2426C13.3679 12.1174 14 10.5913 14 9C14 8.73478 14.1054 8.48043 14.2929 8.29289C14.4804 8.10536 14.7348 8 15 8ZM8 0C9.06087 0 10.0783 0.421427 10.8284 1.17157C11.5786 1.92172 12 2.93913 12 4V9C12 10.0609 11.5786 11.0783 10.8284 11.8284C10.0783 12.5786 9.06087 13 8 13C6.93913 13 5.92172 12.5786 5.17157 11.8284C4.42143 11.0783 4 10.0609 4 9V4C4 2.93913 4.42143 1.92172 5.17157 1.17157C5.92172 0.421427 6.93913 0 8 0Z"
 fill="currentColor"/>
</svg>
