<svg width="18" height="20" viewBox="0 0 18 20" fill="none" xmlns="http://www.w3.org/2000/svg">
<path d="M9.52941 1.57895C9.52941 1.43936 9.47364 1.30549 9.37435 1.20679C9.27507 1.10808 9.14041 1.05263 9 1.05263C8.85959 1.05263 8.72493 1.10808 8.62565 1.20679C8.52637 1.30549 8.47059 1.43936 8.47059 1.57895V3.18947C6.08824 3.45263 4.23529 5.45263 4.23529 7.89474V14.1158L2.55176 15.7895H15.4482L13.7647 14.1158V7.89474C13.7647 5.45263 11.9118 3.45263 9.52941 3.18947V1.57895ZM9 0C9.42123 0 9.8252 0.166353 10.1231 0.462463C10.4209 0.758573 10.5882 1.16018 10.5882 1.57895V2.32632C13.0341 3.01053 14.8235 5.26316 14.8235 7.89474V13.6842L18 16.8421H0L3.17647 13.6842V7.89474C3.17647 5.26316 4.96588 3.01053 7.41177 2.32632V1.57895C7.41177 1.16018 7.5791 0.758573 7.87695 0.462463C8.1748 0.166353 8.57877 0 9 0ZM9 20C8.38977 20.0001 7.79824 19.7906 7.32552 19.407C6.8528 19.0234 6.52793 18.4891 6.40588 17.8947H7.50706C7.61595 18.2019 7.81804 18.4679 8.08544 18.6561C8.35284 18.8443 8.67239 18.9454 9 18.9454C9.32762 18.9454 9.64716 18.8443 9.91456 18.6561C10.182 18.4679 10.384 18.2019 10.4929 17.8947H11.5941C11.4721 18.4891 11.1472 19.0234 10.6745 19.407C10.2018 19.7906 9.61023 20.0001 9 20Z" fill="black"/>
</svg>
