<svg width="25" height="25" viewBox="0 0 25 25" fill="none" xmlns="http://www.w3.org/2000/svg">
<path d="M23.75 0L17.1875 6.5625V4.6875C17.1875 2.03125 15.1562 0 12.5 0C9.84375 0 7.8125 2.03125 7.8125 4.6875V10.9375C7.8125 12.3438 8.4375 13.5938 9.375 14.375L8.125 15.625C7.03125 14.6875 6.25 13.2812 6.25 11.7188V7.8125C5.3125 7.8125 4.6875 8.4375 4.6875 9.375V11.7188C4.6875 13.75 5.625 15.4688 7.03125 16.7188L0 23.9062V25H1.09375L25 0.9375V0H23.75ZM19.5312 7.96875L18.75 8.75V11.7188C18.75 14.6875 15.9375 17.1875 12.8125 17.1875H12.1875C11.7188 17.1875 11.25 17.0312 10.7812 17.0312L9.375 18.125C9.84375 18.2812 10.3125 18.4375 10.9375 18.5938V21.875C6.25 21.875 7.03125 25 7.03125 25H17.9688C17.9688 25 18.75 21.875 14.0625 21.875V18.5938C17.5 17.9688 20.3125 15.1562 20.3125 11.7188V9.375C20.3125 8.75 20 8.28125 19.5312 7.96875Z"
 fill="currentColor"/>
</svg>
