<svg width="19" height="19" viewBox="0 0 19 19" fill="none" xmlns="http://www.w3.org/2000/svg">
<path d="M14.698 9.45078C14.3184 9.45078 13.9543 9.29999 13.6859 9.03158C13.4175 8.76317 13.2667 8.39912 13.2667 8.01953C13.2667 7.63994 13.4175 7.2759 13.6859 7.00748C13.9543 6.73907 14.3184 6.58828 14.698 6.58828C15.0776 6.58828 15.4416 6.73907 15.71 7.00748C15.9784 7.2759 16.1292 7.63994 16.1292 8.01953C16.1292 8.39912 15.9784 8.76317 15.71 9.03158C15.4416 9.29999 15.0776 9.45078 14.698 9.45078ZM11.8355 5.63411C11.4559 5.63411 11.0918 5.48332 10.8234 5.21491C10.555 4.9465 10.4042 4.58246 10.4042 4.20286C10.4042 3.82327 10.555 3.45923 10.8234 3.19082C11.0918 2.92241 11.4559 2.77161 11.8355 2.77161C12.2151 2.77161 12.5791 2.92241 12.8475 3.19082C13.1159 3.45923 13.2667 3.82327 13.2667 4.20286C13.2667 4.58246 13.1159 4.9465 12.8475 5.21491C12.5791 5.48332 12.2151 5.63411 11.8355 5.63411ZM7.06463 5.63411C6.68504 5.63411 6.321 5.48332 6.05259 5.21491C5.78417 4.9465 5.63338 4.58246 5.63338 4.20286C5.63338 3.82327 5.78417 3.45923 6.05259 3.19082C6.321 2.92241 6.68504 2.77161 7.06463 2.77161C7.44422 2.77161 7.80827 2.92241 8.07668 3.19082C8.34509 3.45923 8.49588 3.82327 8.49588 4.20286C8.49588 4.58246 8.34509 4.9465 8.07668 5.21491C7.80827 5.48332 7.44422 5.63411 7.06463 5.63411ZM4.20213 9.45078C3.82254 9.45078 3.4585 9.29999 3.19009 9.03158C2.92167 8.76317 2.77088 8.39912 2.77088 8.01953C2.77088 7.63994 2.92167 7.2759 3.19009 7.00748C3.4585 6.73907 3.82254 6.58828 4.20213 6.58828C4.58172 6.58828 4.94577 6.73907 5.21418 7.00748C5.48259 7.2759 5.63338 7.63994 5.63338 8.01953C5.63338 8.39912 5.48259 8.76317 5.21418 9.03158C4.94577 9.29999 4.58172 9.45078 4.20213 9.45078ZM9.45005 0.863281C7.1725 0.863281 4.98824 1.76803 3.37777 3.3785C1.7673 4.98897 0.862549 7.17323 0.862549 9.45078C0.862549 11.7283 1.7673 13.9126 3.37777 15.5231C4.98824 17.1335 7.1725 18.0383 9.45005 18.0383C9.82964 18.0383 10.1937 17.8875 10.4621 17.6191C10.7305 17.3507 10.8813 16.9866 10.8813 16.607C10.8813 16.2349 10.7382 15.9009 10.5092 15.6529C10.2897 15.3952 10.1466 15.0613 10.1466 14.6987C10.1466 14.3191 10.2974 13.9551 10.5658 13.6867C10.8342 13.4182 11.1982 13.2674 11.5778 13.2674H13.2667C14.532 13.2674 15.7455 12.7648 16.6402 11.8701C17.5349 10.9754 18.0375 9.76192 18.0375 8.49661C18.0375 4.2792 14.1923 0.863281 9.45005 0.863281Z"
 fill="currentColor"/>
</svg>
