<svg width="23" height="23" viewBox="0 0 23 23" fill="none" xmlns="http://www.w3.org/2000/svg">
<path fill-rule="evenodd" clip-rule="evenodd" d="M18.6875 3.59375H4.3125C4.12188 3.59375 3.93906 3.66948 3.80427 3.80427C3.66948 3.93906 3.59375 4.12188 3.59375 4.3125V18.6875C3.59375 18.8781 3.66948 19.0609 3.80427 19.1957C3.93906 19.3305 4.12188 19.4062 4.3125 19.4062H18.6875C18.8781 19.4062 19.0609 19.3305 19.1957 19.1957C19.3305 19.0609 19.4062 18.8781 19.4062 18.6875V4.3125C19.4062 4.12188 19.3305 3.93906 19.1957 3.80427C19.0609 3.66948 18.8781 3.59375 18.6875 3.59375ZM4.3125 1.4375C3.55 1.4375 2.81874 1.7404 2.27957 2.27957C1.7404 2.81874 1.4375 3.55 1.4375 4.3125V18.6875C1.4375 19.45 1.7404 20.1813 2.27957 20.7204C2.81874 21.2596 3.55 21.5625 4.3125 21.5625H18.6875C19.45 21.5625 20.1813 21.2596 20.7204 20.7204C21.2596 20.1813 21.5625 19.45 21.5625 18.6875V4.3125C21.5625 3.55 21.2596 2.81874 20.7204 2.27957C20.1813 1.7404 19.45 1.4375 18.6875 1.4375H4.3125ZM17.25 15.6069L13.6562 11.5L10.097 15.5681L7.90625 12.9375L5.75 15.525V17.25H17.25V15.6069ZM9.34375 11.5C9.91562 11.5 10.4641 11.2728 10.8684 10.8684C11.2728 10.4641 11.5 9.91562 11.5 9.34375C11.5 8.77188 11.2728 8.22343 10.8684 7.81905C10.4641 7.41468 9.91562 7.1875 9.34375 7.1875C8.77188 7.1875 8.22343 7.41468 7.81905 7.81905C7.41468 8.22343 7.1875 8.77188 7.1875 9.34375C7.1875 9.91562 7.41468 10.4641 7.81905 10.8684C8.22343 11.2728 8.77188 11.5 9.34375 11.5Z" fill="#292382"/>
</svg>
