<svg width="26" height="24" viewBox="0 0 26 24" fill="none" xmlns="http://www.w3.org/2000/svg">
<path d="M7.7973 11.7814C6.37722 11.8252 5.21573 12.3863 4.31284 13.4645H2.55089C1.83208 13.4645 1.22723 13.287 0.736339 12.9319C0.245446 12.5769 0 12.0575 0 11.3738C0 8.27943 0.543488 6.73224 1.63046 6.73224C1.68306 6.73224 1.87372 6.82428 2.20244 7.00837C2.53116 7.19245 2.9585 7.37873 3.48446 7.5672C4.01042 7.75566 4.53199 7.8499 5.04918 7.8499C5.6365 7.8499 6.21943 7.74909 6.79798 7.54747C6.75416 7.87181 6.73224 8.16109 6.73224 8.4153C6.73224 9.63377 7.08726 10.7558 7.7973 11.7814ZM21.8798 20.1573C21.8798 21.2092 21.5598 22.0398 20.9199 22.649C20.28 23.2582 19.4297 23.5628 18.369 23.5628H6.87688C5.8162 23.5628 4.9659 23.2582 4.32599 22.649C3.68608 22.0398 3.36612 21.2092 3.36612 20.1573C3.36612 19.6927 3.38146 19.239 3.41214 18.7964C3.44282 18.3537 3.50418 17.8759 3.59623 17.3631C3.68827 16.8503 3.80442 16.3748 3.94467 15.9365C4.08493 15.4982 4.27339 15.0708 4.51008 14.6545C4.74676 14.2381 5.0185 13.8831 5.32531 13.5894C5.63211 13.2957 6.00686 13.0612 6.44954 12.8859C6.89222 12.7106 7.38092 12.623 7.91564 12.623C8.0033 12.623 8.19177 12.7172 8.48104 12.9057C8.77032 13.0941 9.09028 13.3045 9.44092 13.5368C9.79155 13.7691 10.2605 13.9795 10.8478 14.1679C11.4352 14.3564 12.0269 14.4506 12.623 14.4506C13.219 14.4506 13.8107 14.3564 14.3981 14.1679C14.9854 13.9795 15.4543 13.7691 15.805 13.5368C16.1556 13.3045 16.4756 13.0941 16.7649 12.9057C17.0541 12.7172 17.2426 12.623 17.3303 12.623C17.865 12.623 18.3537 12.7106 18.7964 12.8859C19.239 13.0612 19.6138 13.2957 19.9206 13.5894C20.2274 13.8831 20.4991 14.2381 20.7358 14.6545C20.9725 15.0708 21.161 15.4982 21.3012 15.9365C21.4415 16.3748 21.5576 16.8503 21.6497 17.3631C21.7417 17.8759 21.8031 18.3537 21.8338 18.7964C21.8644 19.239 21.8798 19.6927 21.8798 20.1573ZM8.4153 3.36612C8.4153 4.29531 8.08658 5.08863 7.42913 5.74607C6.77169 6.40352 5.97837 6.73224 5.04918 6.73224C4.11999 6.73224 3.32667 6.40352 2.66923 5.74607C2.01178 5.08863 1.68306 4.29531 1.68306 3.36612C1.68306 2.43693 2.01178 1.64361 2.66923 0.986168C3.32667 0.328723 4.11999 0 5.04918 0C5.97837 0 6.77169 0.328723 7.42913 0.986168C8.08658 1.64361 8.4153 2.43693 8.4153 3.36612ZM17.6721 8.4153C17.6721 9.80908 17.179 10.9991 16.1929 11.9852C15.2067 12.9714 14.0167 13.4645 12.623 13.4645C11.2292 13.4645 10.0392 12.9714 9.05302 11.9852C8.06685 10.9991 7.57377 9.80908 7.57377 8.4153C7.57377 7.02152 8.06685 5.83154 9.05302 4.84537C10.0392 3.8592 11.2292 3.36612 12.623 3.36612C14.0167 3.36612 15.2067 3.8592 16.1929 4.84537C17.179 5.83154 17.6721 7.02152 17.6721 8.4153ZM25.2459 11.3738C25.2459 12.0575 25.0005 12.5769 24.5096 12.9319C24.0187 13.287 23.4138 13.4645 22.695 13.4645H20.9331C20.0302 12.3863 18.8687 11.8252 17.4486 11.7814C18.1586 10.7558 18.5137 9.63377 18.5137 8.4153C18.5137 8.16109 18.4917 7.87181 18.4479 7.54747C19.0265 7.74909 19.6094 7.8499 20.1967 7.8499C20.7139 7.8499 21.2355 7.75566 21.7614 7.5672C22.2874 7.37873 22.7147 7.19245 23.0435 7.00837C23.3722 6.82428 23.5628 6.73224 23.6154 6.73224C24.7024 6.73224 25.2459 8.27943 25.2459 11.3738ZM23.5628 3.36612C23.5628 4.29531 23.2341 5.08863 22.5767 5.74607C21.9192 6.40352 21.1259 6.73224 20.1967 6.73224C19.2675 6.73224 18.4742 6.40352 17.8168 5.74607C17.1593 5.08863 16.8306 4.29531 16.8306 3.36612C16.8306 2.43693 17.1593 1.64361 17.8168 0.986168C18.4742 0.328723 19.2675 0 20.1967 0C21.1259 0 21.9192 0.328723 22.5767 0.986168C23.2341 1.64361 23.5628 2.43693 23.5628 3.36612Z" fill="currentColor"/>
</svg>
