<svg width="21" height="9" viewBox="0 0 21 9" fill="none" xmlns="http://www.w3.org/2000/svg">
<path d="M20.4499 5.67517L20.2512 6.71267C20.0674 7.68267 19.1587 8.33517 18.1299 8.23517L16.0837 8.03767C15.1912 7.95142 14.5299 7.30017 14.2499 6.37517C13.8699 5.11892 13.6249 4.18767 13.6249 4.18767C12.6378 3.7651 11.5737 3.55227 10.4999 3.56267C9.23244 3.56267 8.32744 3.83142 7.37494 4.18767C7.37494 4.18767 7.11994 5.12017 6.74994 6.37517C6.50244 7.21267 6.11994 7.94642 5.24619 8.03392L3.21119 8.23892C2.71564 8.2865 2.21881 8.16215 1.8041 7.88674C1.38939 7.61133 1.08205 7.20163 0.933694 6.72642L0.623694 5.69142C0.470765 5.19593 0.457165 4.66791 0.584384 4.16521C0.711603 3.6625 0.974733 3.20451 1.34494 2.84142C3.12619 1.11017 6.33244 0.135167 10.4899 0.128917C14.6549 0.125167 17.4824 1.09517 19.4424 2.82517C20.2674 3.55267 20.6462 4.64767 20.4499 5.67517Z" fill="white"/>
</svg>
