<svg width="46" height="46" viewBox="0 0 46 46" fill="none" xmlns="http://www.w3.org/2000/svg">
<path fill-rule="evenodd" clip-rule="evenodd" d="M10.8664 9.12341C10.9182 8.68821 11.0708 8.27109 11.312 7.9052C11.5533 7.53932 11.8766 7.23476 12.2562 7.01573C12.6358 6.79671 13.0613 6.66927 13.4988 6.64353C13.9363 6.6178 14.3738 6.69448 14.7764 6.86749C16.8119 7.73766 21.3736 9.80574 27.1619 13.1465C32.9522 16.4892 37.0251 19.4082 38.7942 20.7327C40.3045 21.8654 40.3083 24.1117 38.7961 25.2483C37.0443 26.5651 33.0212 29.4458 27.1619 32.8307C21.2969 36.2155 16.7889 38.2587 14.7726 39.1173C13.0361 39.8591 11.0926 38.734 10.8664 36.8614C10.6019 34.6726 10.1074 29.7027 10.1074 22.9905C10.1074 16.2822 10.6 11.3142 10.8664 9.12341Z" fill="currentColor"/>
</svg>
