<svg width="27" height="28" viewBox="0 0 27 28" fill="none" xmlns="http://www.w3.org/2000/svg">
<path d="M4.97375 27.0969C6.115 27.0301 6.83125 26.1382 6.88688 24.9969C6.97125 23.2838 7.0625 20.0332 7.0625 14.0001C7.0625 7.96693 6.97125 4.7163 6.8875 3.0038C6.83125 1.86193 6.115 0.970054 4.97375 0.903179C4.62869 0.883573 4.28312 0.874194 3.9375 0.875054C3.54375 0.875054 3.2 0.885679 2.90125 0.903179C1.76 0.970054 1.04375 1.86193 0.988124 3.00318C0.903749 4.7163 0.8125 7.96693 0.8125 14.0001C0.8125 20.0332 0.903749 23.2838 0.987499 24.9963C1.04375 26.1382 1.76 27.0301 2.90125 27.0969C3.19833 27.1148 3.54375 27.1242 3.9375 27.1251C4.33125 27.1251 4.675 27.1144 4.97375 27.0969Z" stroke="#292382" stroke-width="1.5" stroke-linecap="round" stroke-linejoin="round"/>
<path d="M17.3198 13.6021C17.4113 13.7138 17.4612 13.8537 17.4612 13.9981C17.4612 14.1424 17.4113 14.2823 17.3198 14.394L10.9867 22.1352C10.4842 22.7502 10.2917 23.5784 10.6617 24.2802C10.8948 24.7209 11.2242 25.2227 11.6754 25.6646C12.1336 26.1134 12.6542 26.4396 13.1086 26.6684C13.8161 27.0234 14.6417 26.8284 15.2361 26.3059C19.0904 22.9227 23.0092 18.3921 24.9611 15.4296C25.5454 14.5427 25.6054 13.4246 25.0486 12.5202C23.2261 9.55712 19.1073 5.05525 15.2379 1.689C14.6411 1.169 13.8161 0.973371 13.1086 1.329C12.6542 1.55775 12.1336 1.884 11.6754 2.33275C11.2692 2.73974 10.9277 3.20662 10.6629 3.71712C10.2917 4.419 10.4842 5.24712 10.9867 5.8615L17.3198 13.6021Z" stroke="#292382" stroke-width="1.5" stroke-linecap="round" stroke-linejoin="round"/>
</svg>
