<svg width="19" height="18" viewBox="0 0 19 18" fill="none" xmlns="http://www.w3.org/2000/svg">
<path d="M16.0498 0.637083C15.9941 0.525524 15.9084 0.431687 15.8023 0.366082C15.6962 0.300476 15.574 0.265692 15.4493 0.265625H11.419C11.3169 0.265628 11.2161 0.288907 11.1244 0.333694C11.0326 0.378481 10.9523 0.443597 10.8895 0.524092C10.8267 0.604587 10.783 0.698343 10.7619 0.798234C10.7407 0.898125 10.7426 1.00152 10.7674 1.10057L12.0652 6.29091L11.9537 6.64691H18.7179C18.7733 6.5507 18.8041 6.44224 18.8074 6.33123C18.8107 6.22021 18.7864 6.11012 18.7367 6.0108L16.0498 0.637083Z" fill="#6D6D6D"/>
<path d="M16.0498 0.637083C15.9941 0.525524 15.9084 0.431687 15.8023 0.366082C15.6962 0.300476 15.574 0.265692 15.4493 0.265625H11.419C11.3169 0.265628 11.2161 0.288907 11.1244 0.333694C11.0326 0.378481 10.9523 0.443597 10.8895 0.524092C10.8267 0.604587 10.783 0.698343 10.7619 0.798234C10.7407 0.898125 10.7426 1.00152 10.7674 1.10057L12.0652 6.29091L11.9537 6.64691H18.7179C18.7733 6.5507 18.8041 6.44224 18.8074 6.33123C18.8107 6.22021 18.7864 6.11012 18.7367 6.0108L16.0498 0.637083Z" fill="url(#paint0_linear_668_727)"/>
<path d="M2.7581 0.637083C2.81385 0.525524 2.89955 0.431687 3.00561 0.366082C3.11168 0.300476 3.23391 0.265692 3.35862 0.265625H7.38891C7.49101 0.265628 7.59177 0.288907 7.68353 0.333694C7.77529 0.378481 7.85563 0.443597 7.91844 0.524092C7.98126 0.604587 8.0249 0.698343 8.04604 0.798234C8.06719 0.898125 8.06528 1.00152 8.04047 1.10057L6.74272 6.29091L6.85422 6.64691H0.090054C0.0345764 6.5507 0.00381989 6.44224 0.000537604 6.33123C-0.00274468 6.22021 0.0215496 6.11012 0.0712459 6.0108L2.7581 0.637083Z" fill="#E8E8E8"/>
<path d="M2.7581 0.637083C2.81385 0.525524 2.89955 0.431687 3.00561 0.366082C3.11168 0.300476 3.23391 0.265692 3.35862 0.265625H7.38891C7.49101 0.265628 7.59177 0.288907 7.68353 0.333694C7.77529 0.378481 7.85563 0.443597 7.91844 0.524092C7.98126 0.604587 8.0249 0.698343 8.04604 0.798234C8.06719 0.898125 8.06528 1.00152 8.04047 1.10057L6.74272 6.29091L6.85422 6.64691H0.090054C0.0345764 6.5507 0.00381989 6.44224 0.000537604 6.33123C-0.00274468 6.22021 0.0215496 6.11012 0.0712459 6.0108L2.7581 0.637083Z" fill="url(#paint1_linear_668_727)"/>
<path d="M6.73739 0.774113C6.77378 0.628857 6.85766 0.499925 6.97571 0.407797C7.09376 0.315669 7.23921 0.265629 7.38896 0.265625H11.4192C11.569 0.265629 11.7144 0.315669 11.8325 0.407797C11.9505 0.499925 12.0344 0.628857 12.0708 0.774113L13.4142 6.14783C13.4443 6.26759 13.4409 6.39332 13.4042 6.51123L13.3612 6.64691H5.4477L5.40538 6.51123C5.36859 6.3936 5.36487 6.26811 5.39464 6.1485L6.73739 0.774113Z" fill="#B6B6B6"/>
<path d="M6.73739 0.774113C6.77378 0.628857 6.85766 0.499925 6.97571 0.407797C7.09376 0.315669 7.23921 0.265629 7.38896 0.265625H11.4192C11.569 0.265629 11.7144 0.315669 11.8325 0.407797C11.9505 0.499925 12.0344 0.628857 12.0708 0.774113L13.4142 6.14783C13.4443 6.26759 13.4409 6.39332 13.4042 6.51123L13.3612 6.64691H5.4477L5.40538 6.51123C5.36859 6.3936 5.36487 6.26811 5.39464 6.1485L6.73739 0.774113Z" fill="url(#paint2_linear_668_727)"/>
<path d="M12.0587 6.3125L8.76328 16.8598C8.7169 17.0087 8.72382 17.1692 8.78286 17.3136C8.8419 17.4581 8.94938 17.5774 9.08684 17.6513C9.2243 17.7251 9.38318 17.7487 9.53618 17.7182C9.68919 17.6876 9.82679 17.6047 9.92535 17.4838L18.6576 6.73635C18.755 6.61656 18.8081 6.46688 18.8081 6.3125H12.0587Z" fill="url(#paint3_linear_668_727)"/>
<path d="M0 6.3125C0.000113026 6.46665 0.0532391 6.61606 0.150464 6.73568L8.88275 17.4831C8.98132 17.6039 9.11883 17.6866 9.2717 17.7171C9.42457 17.7476 9.58329 17.724 9.72066 17.6503C9.85803 17.5766 9.9655 17.4575 10.0246 17.3132C10.0838 17.169 10.0909 17.0087 10.0448 16.8598L6.75006 6.3125H0Z" fill="#CACACA"/>
<path d="M0 6.3125C0.000113026 6.46665 0.0532391 6.61606 0.150464 6.73568L8.88275 17.4831C8.98132 17.6039 9.11883 17.6866 9.2717 17.7171C9.42457 17.7476 9.58329 17.724 9.72066 17.6503C9.85803 17.5766 9.9655 17.4575 10.0246 17.3132C10.0838 17.169 10.0909 17.0087 10.0448 16.8598L6.75006 6.3125H0Z" fill="url(#paint4_linear_668_727)"/>
<path d="M5.37378 6.3125C5.3739 6.3804 5.38432 6.44789 5.40468 6.51267L8.76325 17.2601C8.80594 17.3967 8.89117 17.5162 9.0065 17.601C9.12184 17.6858 9.26125 17.7315 9.4044 17.7315C9.54756 17.7315 9.68697 17.6858 9.8023 17.601C9.91764 17.5162 10.0029 17.3967 10.0456 17.2601L13.4041 6.51267C13.4243 6.44786 13.4345 6.38037 13.4344 6.3125H5.37378Z" fill="#969696"/>
<path d="M5.37378 6.3125C5.3739 6.3804 5.38432 6.44789 5.40468 6.51267L8.76325 17.2601C8.80594 17.3967 8.89117 17.5162 9.0065 17.601C9.12184 17.6858 9.26125 17.7315 9.4044 17.7315C9.54756 17.7315 9.68697 17.6858 9.8023 17.601C9.91764 17.5162 10.0029 17.3967 10.0456 17.2601L13.4041 6.51267C13.4243 6.44786 13.4345 6.38037 13.4344 6.3125H5.37378Z" fill="url(#paint5_linear_668_727)"/>
<path d="M3.35865 0.265625C3.23394 0.265692 3.11171 0.300476 3.00565 0.366082C2.89959 0.431687 2.81388 0.525524 2.75814 0.637083L0.0712798 6.0108C0.0134536 6.12634 -0.00982551 6.2561 0.00423298 6.38453C0.0182915 6.51297 0.069091 6.63462 0.150542 6.73491L8.88283 17.4823C8.94582 17.5598 9.02529 17.6223 9.11545 17.6652C9.20562 17.7081 9.30423 17.7304 9.40408 17.7304C9.50394 17.7304 9.60254 17.7081 9.69271 17.6652C9.78288 17.6223 9.86235 17.5598 9.92533 17.4823L18.6576 6.73491C18.7391 6.63462 18.7899 6.51297 18.8039 6.38453C18.818 6.2561 18.7947 6.12634 18.7369 6.0108L16.05 0.637083C15.9943 0.525524 15.9086 0.431687 15.8025 0.366082C15.6965 0.300476 15.5742 0.265692 15.4495 0.265625H3.35865Z" fill="url(#paint6_linear_668_727)" fill-opacity="0.7"/>
<defs>
<linearGradient id="paint0_linear_668_727" x1="13.6263" y1="0.265625" x2="17.6532" y2="10.0753" gradientUnits="userSpaceOnUse">
<stop stop-color="#0FAFFF"/>
<stop offset="1" stop-color="#102784"/>
</linearGradient>
<linearGradient id="paint1_linear_668_727" x1="6.9093" y1="-2.39302" x2="3.3781" y2="5.79854" gradientUnits="userSpaceOnUse">
<stop stop-color="#9FF0F9"/>
<stop offset="1" stop-color="#29C3FF"/>
</linearGradient>
<linearGradient id="paint2_linear_668_727" x1="9.4041" y1="0.265625" x2="9.4041" y2="8.24224" gradientUnits="userSpaceOnUse">
<stop stop-color="#3BD5FF"/>
<stop offset="1" stop-color="#367AF2"/>
</linearGradient>
<linearGradient id="paint3_linear_668_727" x1="21.1786" y1="0.602924" x2="11.0659" y2="16.9337" gradientUnits="userSpaceOnUse">
<stop stop-color="#1B44B1"/>
<stop offset="1" stop-color="#2052CB"/>
</linearGradient>
<linearGradient id="paint4_linear_668_727" x1="1.77803" y1="4.02867" x2="8.47502" y2="17.9318" gradientUnits="userSpaceOnUse">
<stop stop-color="#0094F0"/>
<stop offset="1" stop-color="#6CE0FF"/>
</linearGradient>
<linearGradient id="paint5_linear_668_727" x1="9.39869" y1="2.3158" x2="9.39869" y2="17.7317" gradientUnits="userSpaceOnUse">
<stop stop-color="#2052CB"/>
<stop offset="1" stop-color="#0FAFFF"/>
</linearGradient>
<linearGradient id="paint6_linear_668_727" x1="-1.91028" y1="-16.18" x2="13.118" y2="19.1448" gradientUnits="userSpaceOnUse">
<stop offset="0.533" stop-color="#FF6CE8" stop-opacity="0"/>
<stop offset="1" stop-color="#FF6CE8"/>
</linearGradient>
</defs>
</svg>
