<svg width="16" height="15" viewBox="0 0 16 15" fill="none" xmlns="http://www.w3.org/2000/svg">
<path d="M8 0C12.4184 0 16 3.2837 16 7.3346C16 11.3855 12.4184 14.6692 8 14.6692C3.5816 14.6692 0 11.3855 0 7.3346C0 3.2837 3.5816 0 8 0ZM8 10.2684C7.78783 10.2684 7.58434 10.3457 7.43431 10.4833C7.28429 10.6208 7.2 10.8074 7.2 11.0019C7.2 11.1964 7.28429 11.383 7.43431 11.5205C7.58434 11.6581 7.78783 11.7354 8 11.7354C8.21217 11.7354 8.41566 11.6581 8.56569 11.5205C8.71571 11.383 8.8 11.1964 8.8 11.0019C8.8 10.8074 8.71571 10.6208 8.56569 10.4833C8.41566 10.3457 8.21217 10.2684 8 10.2684ZM8 3.30057C7.23087 3.30057 6.49325 3.58069 5.94939 4.07931C5.40554 4.57793 5.1 5.2542 5.1 5.95936C5.1 6.15388 5.18429 6.34044 5.33431 6.47799C5.48434 6.61554 5.68783 6.69282 5.9 6.69282C6.11217 6.69282 6.31566 6.61554 6.46569 6.47799C6.61571 6.34044 6.7 6.15388 6.7 5.95936C6.70026 5.74302 6.76475 5.53082 6.88655 5.34552C7.00834 5.16022 7.18285 5.00881 7.39136 4.90752C7.59988 4.80623 7.83453 4.75889 8.07015 4.77056C8.30578 4.78224 8.5335 4.85249 8.72889 4.97379C8.92428 5.09509 9.07997 5.26286 9.17928 5.45912C9.27858 5.65537 9.31775 5.87271 9.29258 6.08782C9.26742 6.30293 9.17886 6.5077 9.03642 6.68018C8.89397 6.85266 8.70301 6.98634 8.484 7.06688C7.9432 7.26492 7.2 7.77247 7.2 8.61815V8.80152C7.2 8.99604 7.28429 9.1826 7.43431 9.32015C7.58434 9.4577 7.78783 9.53498 8 9.53498C8.21217 9.53498 8.41566 9.4577 8.56569 9.32015C8.71571 9.1826 8.8 8.99604 8.8 8.80152C8.8 8.62255 8.84 8.53307 9.0088 8.45679L9.0784 8.42745C9.70305 8.19707 10.2208 7.77464 10.543 7.23258C10.8651 6.69053 10.9716 6.06262 10.8441 5.45649C10.7166 4.85036 10.3631 4.30377 9.8442 3.91042C9.32529 3.51707 8.6733 3.30147 8 3.30057Z" fill="#3A3A3A" fill-opacity="0.75"/>
</svg>
