<svg width="23" height="23" viewBox="0 0 23 23" fill="none" xmlns="http://www.w3.org/2000/svg">
<path d="M11.5 17.2513C13.025 17.2513 14.4875 16.6455 15.5659 15.5672C16.6442 14.4888 17.25 13.0263 17.25 11.5013C17.25 9.97631 16.6442 8.51377 15.5659 7.43544C14.4875 6.3571 13.025 5.7513 11.5 5.7513C9.97501 5.7513 8.51248 6.3571 7.43414 7.43544C6.35581 8.51377 5.75001 9.97631 5.75001 11.5013C5.75001 13.0263 6.35581 14.4888 7.43414 15.5672C8.51248 16.6455 9.97501 17.2513 11.5 17.2513ZM21.0833 11.5013C21.0833 14.043 20.0737 16.4805 18.2764 18.2777C16.4792 20.075 14.0417 21.0846 11.5 21.0846C8.95835 21.0846 6.52079 20.075 4.72357 18.2777C2.92634 16.4805 1.91667 14.043 1.91667 11.5013C1.91667 8.95964 2.92634 6.52209 4.72357 4.72486C6.52079 2.92764 8.95835 1.91797 11.5 1.91797C14.0417 1.91797 16.4792 2.92764 18.2764 4.72486C20.0737 6.52209 21.0833 8.95964 21.0833 11.5013ZM19.1667 11.5013C19.1667 9.46798 18.3589 7.51793 16.9212 6.08015C15.4834 4.64237 13.5333 3.83464 11.5 3.83464C9.46668 3.83464 7.51663 4.64237 6.07885 6.08015C4.64107 7.51793 3.83334 9.46798 3.83334 11.5013C3.83334 13.5346 4.64107 15.4847 6.07885 16.9225C7.51663 18.3602 9.46668 19.168 11.5 19.168C13.5333 19.168 15.4834 18.3602 16.9212 16.9225C18.3589 15.4847 19.1667 13.5346 19.1667 11.5013Z" 
fill="#D92D25"/>
</svg>
