<svg width="21" height="21" viewBox="0 0 21 21" fill="none" xmlns="http://www.w3.org/2000/svg">
<path d="M10.9322 0.789062C5.39162 0.789062 0.883698 5.29698 0.883698 10.8376C0.883698 16.3782 5.39162 20.8861 10.9322 20.8861C16.4728 20.8861 20.9807 16.3782 20.9807 10.8376C20.9807 5.29698 16.4728 0.789062 10.9322 0.789062ZM10.9322 2.33499C15.6372 2.33499 19.4348 6.13256 19.4348 10.8376C19.4348 15.5426 15.6372 19.3402 10.9322 19.3402C6.22719 19.3402 2.42962 15.5426 2.42962 10.8376C2.42962 6.13256 6.22719 2.33499 10.9322 2.33499ZM8.01042 6.80271L6.89735 7.91578L9.82224 10.8376L6.8989 13.7594L8.01196 14.8724L10.9322 11.9483L13.854 14.8701L14.9671 13.7594L12.043 10.8376L14.9648 7.91578L13.854 6.80271L10.9322 9.72761L8.01042 6.80426V6.80271Z" fill="#EC1B2C"/>
</svg>
