<svg width="22" height="22" viewBox="0 0 22 22" fill="none" xmlns="http://www.w3.org/2000/svg">
<path d="M20.3809 16.9223C20.6921 16.7471 20.7984 16.3586 20.6189 16.0548C20.4393 15.7512 20.0418 15.647 19.7306 15.8223L11.2389 20.6106L2.77819 15.8402C2.46749 15.6648 2.06982 15.7687 1.88997 16.0726C1.71054 16.3765 1.8172 16.7648 2.12807 16.94L10.8889 21.8798C10.965 21.9228 11.0489 21.9502 11.1357 21.9606C11.2225 21.9709 11.3105 21.964 11.3946 21.9401C11.4739 21.928 11.5503 21.9016 11.6202 21.8622L20.3809 16.9223Z" fill="#292382" fill-opacity="0.5"/>
<path d="M10.8859 5.95124C10.9664 5.90604 11.0551 5.87721 11.1468 5.86639C11.2385 5.85558 11.3314 5.863 11.4202 5.88823C11.5029 5.90099 11.5825 5.9285 11.6554 5.96945L20.9171 11.1664C21.1728 11.31 21.2988 11.5892 21.2543 11.8573C21.2857 12.0904 21.1957 12.3349 20.9235 12.4885L11.6615 17.7111C11.5877 17.7526 11.507 17.7804 11.4233 17.793C11.3343 17.8182 11.2413 17.8256 11.1495 17.8147C11.0577 17.8038 10.9689 17.7748 10.8883 17.7295L1.62675 12.5073C1.35682 12.3552 1.26616 12.1132 1.29528 11.8821C1.22899 11.6015 1.35436 11.2997 1.62363 11.1485L10.8859 5.95124ZM11.2543 7.29104L3.17076 11.8272L11.2588 16.3876L19.3423 11.8296L11.2543 7.29104Z" fill="#292382" fill-opacity="0.5"/>
<path d="M11.4071 0.988507C11.4939 1.00209 11.5775 1.03104 11.6541 1.074L21.3835 6.53337C21.6312 6.67236 21.763 6.93227 21.7455 7.19252C21.7963 7.47591 21.665 7.77242 21.3949 7.92437L11.6656 13.4107C11.5881 13.4544 11.5033 13.4835 11.4153 13.4967C11.3219 13.5232 11.2241 13.531 11.1277 13.5195C11.0313 13.5081 10.9381 13.4776 10.8534 13.43L1.12411 7.94414C0.870179 7.80122 0.738907 7.5303 0.766228 7.263C0.707976 6.97461 0.840068 6.66924 1.1159 6.51434L10.8457 1.05496C10.9302 1.00742 11.0234 0.977079 11.1197 0.965674C11.2161 0.954268 11.3137 0.962028 11.4071 0.988507Z" fill="#292382" fill-opacity="0.5"/>
</svg>
