<svg width="28" height="38" viewBox="0 0 28 38" fill="none" xmlns="http://www.w3.org/2000/svg">
<path d="M1.31316 14.8006L3.09015 12.3816L17.0627 22.3999L15.2857 24.8189L1.31316 14.8006ZM10.2844 14.8006L12.0614 12.3816L26.0337 22.3999L24.2569 24.8189L10.2844 14.8006ZM13.6777 0C6.30461 0 0.280075 4.43666 0.0419764 9.95724L0.0347475 10.412H3.06847V10.2968C3.06847 6.26776 7.83581 2.98824 13.6866 2.98824C19.5374 2.98824 24.3045 6.26776 24.3045 10.2968V10.4122H27.3385V10.2968C27.321 4.61949 21.2015 0 13.6777 0ZM24.2744 26.9168C24.2744 30.9456 19.5068 34.2254 13.6519 34.2254C7.79686 34.2254 3.03372 30.9456 3.03372 26.9168V26.8012H0V26.9168C0 32.5939 6.11921 37.2136 13.643 37.2136C21.0164 37.2136 27.0409 32.777 27.279 27.2561L27.2864 26.8014H24.2525L24.2744 26.9168Z" fill="white"/>
</svg>
