<svg width="16" height="15" viewBox="0 0 16 15" fill="none" xmlns="http://www.w3.org/2000/svg">
<path d="M13.75 11.4219C14.0938 11.5938 14.4036 11.8047 14.6797 12.0547C14.9557 12.3047 15.1901 12.5833 15.3828 12.8906C15.5755 13.1979 15.7266 13.5312 15.8359 13.8906C15.9453 14.25 16 14.6198 16 15H15C15 14.5885 14.9219 14.2005 14.7656 13.8359C14.6094 13.4714 14.3958 13.1536 14.125 12.8828C13.8542 12.612 13.5339 12.3958 13.1641 12.2344C12.7943 12.0729 12.4062 11.9948 12 12C11.5833 12 11.1953 12.0781 10.8359 12.2344C10.4766 12.3906 10.1589 12.6042 9.88281 12.875C9.60677 13.1458 9.39062 13.4661 9.23438 13.8359C9.07812 14.2057 9 14.5938 9 15H8C8 14.6198 8.05208 14.25 8.15625 13.8906C8.26042 13.5312 8.41146 13.1979 8.60938 12.8906C8.80729 12.5833 9.04427 12.3047 9.32031 12.0547C9.59635 11.8047 9.90625 11.5938 10.25 11.4219C9.85938 11.1406 9.55469 10.7891 9.33594 10.3672C9.11719 9.94531 9.00521 9.48958 9 9C9 8.58854 9.07812 8.20052 9.23438 7.83594C9.39062 7.47135 9.60417 7.15365 9.875 6.88281C10.1458 6.61198 10.4635 6.39583 10.8281 6.23438C11.1927 6.07292 11.5833 5.99479 12 6C12.4115 6 12.7995 6.07812 13.1641 6.23438C13.5286 6.39062 13.8464 6.60417 14.1172 6.875C14.388 7.14583 14.6042 7.46615 14.7656 7.83594C14.9271 8.20573 15.0052 8.59375 15 9C15 9.48958 14.8906 9.94531 14.6719 10.3672C14.4531 10.7891 14.1458 11.1406 13.75 11.4219ZM12 11C12.276 11 12.5339 10.9479 12.7734 10.8438C13.013 10.7396 13.2266 10.5964 13.4141 10.4141C13.6016 10.2318 13.7448 10.0208 13.8438 9.78125C13.9427 9.54167 13.9948 9.28125 14 9C14 8.72396 13.9479 8.46615 13.8438 8.22656C13.7396 7.98698 13.5964 7.77344 13.4141 7.58594C13.2318 7.39844 13.0208 7.25521 12.7812 7.15625C12.5417 7.05729 12.2812 7.00521 12 7C11.724 7 11.4661 7.05208 11.2266 7.15625C10.987 7.26042 10.7734 7.40365 10.5859 7.58594C10.3984 7.76823 10.2552 7.97917 10.1562 8.21875C10.0573 8.45833 10.0052 8.71875 10 9C10 9.27604 10.0521 9.53385 10.1562 9.77344C10.2604 10.013 10.4036 10.2266 10.5859 10.4141C10.7682 10.6016 10.9792 10.7448 11.2188 10.8438C11.4583 10.9427 11.7188 10.9948 12 11ZM8 11.625C7.83333 11.8177 7.68229 12.0182 7.54688 12.2266C7.41146 12.4349 7.29167 12.6589 7.1875 12.8984C6.91146 12.612 6.57812 12.3906 6.1875 12.2344C5.79688 12.0781 5.40104 12 5 12H2V2H1V13H7.14844C7.07552 13.1615 7.01562 13.3255 6.96875 13.4922C6.92188 13.6589 6.88281 13.8281 6.85156 14H0V1H2V0H5C5.45833 0 5.89844 0.0703125 6.32031 0.210938C6.74219 0.351562 7.13542 0.5625 7.5 0.84375C7.85938 0.5625 8.25 0.351562 8.67188 0.210938C9.09375 0.0703125 9.53646 0 10 0H13V1H15V6C14.6979 5.70312 14.3646 5.45573 14 5.25781V2H13V4.88281C12.8333 4.83594 12.6667 4.80208 12.5 4.78125C12.3333 4.76042 12.1667 4.75 12 4.75V1H10C9.63542 1 9.28125 1.0625 8.9375 1.1875C8.59375 1.3125 8.28125 1.4974 8 1.74219V11.625ZM7 11.5234V1.74219C6.71875 1.5026 6.40625 1.32031 6.0625 1.19531C5.71875 1.07031 5.36458 1.00521 5 1H3V11H5C5.34896 11 5.69271 11.0443 6.03125 11.1328C6.36979 11.2214 6.69271 11.3516 7 11.5234Z" fill="currentColor" fill-opacity="0.75"/>
</svg>
