<svg width="16" height="17" viewBox="0 0 16 17" fill="none" xmlns="http://www.w3.org/2000/svg">
<path d="M14.1921 7.77329V3.28464C14.1921 2.29449 13.7696 1.89844 12.7201 1.89844H10.0533C9.00376 1.89844 8.5813 2.29449 8.5813 3.28464V7.77329C8.5813 8.76343 9.00376 9.15949 10.0533 9.15949H12.7201C13.7696 9.15949 14.1921 8.76343 14.1921 7.77329Z" fill="#4F61E8"/>
<path d="M7.26096 9.22605V13.7147C7.26096 14.7048 6.8385 15.1009 5.78895 15.1009H3.12216C2.07261 15.1009 1.65015 14.7048 1.65015 13.7147V9.22605C1.65015 8.2359 2.07261 7.83984 3.12216 7.83984H5.78895C6.8385 7.83984 7.26096 8.2359 7.26096 9.22605Z" fill="#4F61E8"/>
<path d="M14.1921 13.711V11.8628C14.1921 10.8726 13.7696 10.4766 12.7201 10.4766H10.0533C9.00376 10.4766 8.5813 10.8726 8.5813 11.8628V13.711C8.5813 14.7012 9.00376 15.0972 10.0533 15.0972H12.7201C13.7696 15.0972 14.1921 14.7012 14.1921 13.711Z" fill="#4F61E8"/>
<path d="M7.26096 5.13291V3.28464C7.26096 2.29449 6.8385 1.89844 5.78895 1.89844H3.12216C2.07261 1.89844 1.65015 2.29449 1.65015 3.28464V5.13291C1.65015 6.12305 2.07261 6.51911 3.12216 6.51911H5.78895C6.8385 6.51911 7.26096 6.12305 7.26096 5.13291Z" fill="#4F61E8"/>
</svg>
