<svg width="16" height="16" viewBox="0 0 16 16" fill="none" xmlns="http://www.w3.org/2000/svg">
<path d="M5.81095 16L5.49254 13.44C5.32007 13.3733 5.15768 13.2933 5.00537 13.2C4.85307 13.1067 4.70368 13.0067 4.55721 12.9L2.18905 13.9L0 10.1L2.04975 8.54C2.03648 8.44667 2.02985 8.3568 2.02985 8.2704V7.7304C2.02985 7.64347 2.03648 7.55333 2.04975 7.46L0 5.9L2.18905 2.1L4.55721 3.1C4.70315 2.99333 4.85572 2.89333 5.01493 2.8C5.17413 2.70667 5.33333 2.62667 5.49254 2.56L5.81095 0H10.1891L10.5075 2.56C10.6799 2.62667 10.8426 2.70667 10.9954 2.8C11.1483 2.89333 11.2974 2.99333 11.4428 3.1L13.8109 2.1L16 5.9L13.9502 7.46C13.9635 7.55333 13.9701 7.64347 13.9701 7.7304V8.2696C13.9701 8.35653 13.9569 8.44667 13.9303 8.54L15.9801 10.1L13.791 13.9L11.4428 12.9C11.2969 13.0067 11.1443 13.1067 10.9851 13.2C10.8259 13.2933 10.6667 13.3733 10.5075 13.44L10.1891 16H5.81095ZM8.0398 10.8C8.80929 10.8 9.466 10.5267 10.01 9.98C10.5539 9.43333 10.8259 8.77333 10.8259 8C10.8259 7.22667 10.5539 6.56667 10.01 6.02C9.466 5.47333 8.80929 5.2 8.0398 5.2C7.25705 5.2 6.59688 5.47333 6.0593 6.02C5.52173 6.56667 5.2532 7.22667 5.25373 8C5.25426 8.77333 5.52305 9.43333 6.0601 9.98C6.59715 10.5267 7.25705 10.8 8.0398 10.8Z" fill="currentColor" fill-opacity="0.75"/>
</svg>
