<svg width="41" height="42" viewBox="0 0 41 42" fill="none" xmlns="http://www.w3.org/2000/svg">
<path d="M18.7922 37.2292C14.7554 35.7199 11.3891 30.5539 9.70383 27.5284C8.97608 26.2215 9.3596 24.6174 10.5272 23.6829C11.1559 23.1802 11.9479 22.927 12.7516 22.9716C13.5553 23.0162 14.3143 23.3555 14.8835 23.9247L16.2297 25.2708V15.4479C16.2297 14.8816 16.4546 14.3384 16.8551 13.9379C17.2556 13.5375 17.7987 13.3125 18.3651 13.3125C18.9314 13.3125 19.4746 13.5375 19.875 13.9379C20.2755 14.3384 20.5005 14.8816 20.5005 15.4479V20.5729C20.5005 20.0066 20.7255 19.4634 21.1259 19.0629C21.5264 18.6625 22.0696 18.4375 22.6359 18.4375C23.2023 18.4375 23.7454 18.6625 24.1459 19.0629C24.5464 19.4634 24.7713 20.0066 24.7713 20.5729V22.2812C24.7713 21.7149 24.9963 21.1718 25.3968 20.7713C25.7972 20.3708 26.3404 20.1458 26.9067 20.1458C27.4731 20.1458 28.0162 20.3708 28.4167 20.7713C28.8172 21.1718 29.0422 21.7149 29.0422 22.2812V23.9896C29.0422 23.4232 29.2671 22.8801 29.6676 22.4796C30.0681 22.0791 30.6112 21.8542 31.1776 21.8542C31.7439 21.8542 32.2871 22.0791 32.6875 22.4796C33.088 22.8801 33.313 23.4232 33.313 23.9896V30.7102C33.313 31.6241 33.0866 32.5278 32.5596 33.2752C31.6858 34.5129 30.115 36.404 28.188 37.2292C25.1984 38.5104 22.5249 38.6249 18.7922 37.2292Z" fill="#4F61E8" stroke="#4F61E8" stroke-width="3.41667" stroke-linecap="round" stroke-linejoin="round"/>
<path d="M8.54199 7.33464H27.3337M8.54199 7.33464L11.9587 10.7513M8.54199 7.33464L11.9587 3.91797M27.3337 7.33464L23.917 3.91797M27.3337 7.33464L23.917 10.7513" stroke="#4F61E8" stroke-width="3.41667" stroke-linecap="round" stroke-linejoin="round"/>
</svg>
