<svg width="30" height="30" viewBox="0 0 30 30" fill="none" xmlns="http://www.w3.org/2000/svg">
<path d="M23.0262 1.90307C21.885 1.96994 21.1687 2.86182 21.1131 4.00307C21.0287 5.71619 20.9375 8.96682 20.9375 14.9999C20.9375 21.0331 21.0287 24.2837 21.1125 25.9962C21.1687 27.1381 21.885 28.0299 23.0262 28.0968C23.3713 28.1164 23.7169 28.1258 24.0625 28.1249C24.4562 28.1249 24.8 28.1143 25.0988 28.0968C26.24 28.0299 26.9563 27.1381 27.0119 25.9968C27.0963 24.2837 27.1875 21.0331 27.1875 14.9999C27.1875 8.96682 27.0963 5.71619 27.0125 4.00369C26.9563 2.86182 26.24 1.96994 25.0988 1.90307C24.8017 1.88515 24.4562 1.87578 24.0625 1.87495C23.6688 1.87495 23.325 1.88557 23.0262 1.90307Z" stroke="#292382" stroke-width="1.5" stroke-linecap="round" stroke-linejoin="round"/>
<path d="M10.6799 15.3979C10.5885 15.2862 10.5385 15.1463 10.5385 15.0019C10.5385 14.8576 10.5885 14.7177 10.6799 14.606L17.0131 6.86475C17.5156 6.24975 17.7081 5.42163 17.3381 4.71975C17.1049 4.27913 16.7756 3.77725 16.3243 3.33538C15.8662 2.88663 15.3456 2.56038 14.8912 2.33163C14.1837 1.97663 13.3581 2.17163 12.7637 2.69413C8.90931 6.07725 4.99056 10.6079 3.03869 13.5704C2.45431 14.4573 2.39431 15.5754 2.95119 16.4798C4.77369 19.4429 8.89244 23.9448 12.7618 27.311C13.3587 27.831 14.1837 28.0266 14.8912 27.671C15.3456 27.4423 15.8662 27.116 16.3243 26.6673C16.7306 26.2603 17.0721 25.7934 17.3368 25.2829C17.7081 24.581 17.5156 23.7529 17.0131 23.1385L10.6799 15.3979Z" stroke="#292382" stroke-width="1.5" stroke-linecap="round" stroke-linejoin="round"/>
</svg>
