<svg width="22" height="21" viewBox="0 0 22 21" fill="none" xmlns="http://www.w3.org/2000/svg">
<path d="M21.2037 3.55373L11.5099 0.362721C11.344 0.308129 11.1647 0.308129 10.9989 0.362721L1.30503 3.55373C1.14418 3.60668 1.00428 3.70827 0.905145 3.84411C0.806012 3.97995 0.752673 4.14315 0.752686 4.31059V12.2881C0.752686 12.4997 0.837795 12.7026 0.989291 12.8522C1.14079 13.0018 1.34626 13.0859 1.56051 13.0859C1.77476 13.0859 1.98023 13.0018 2.13173 12.8522C2.28322 12.7026 2.36833 12.4997 2.36833 12.2881V5.41747L5.76018 6.53333C4.85901 7.97108 4.57244 9.70323 4.9634 11.3495C5.35436 12.9957 6.39088 14.4214 7.84537 15.3136C6.02777 16.0176 4.45656 17.291 3.30743 19.0321C3.24766 19.1198 3.20615 19.2184 3.1853 19.3221C3.16446 19.4258 3.16469 19.5325 3.18599 19.6362C3.20729 19.7398 3.24923 19.8382 3.30938 19.9256C3.36953 20.0131 3.44668 20.0879 3.53635 20.1456C3.62602 20.2034 3.72642 20.243 3.83171 20.2621C3.93701 20.2812 4.0451 20.2794 4.1497 20.2569C4.2543 20.2344 4.35333 20.1915 4.44102 20.1309C4.52872 20.0703 4.60333 19.993 4.66053 19.9036C6.18227 17.5981 8.58554 16.2769 11.2544 16.2769C13.9232 16.2769 16.3265 17.5981 17.8482 19.9036C17.9667 20.0775 18.1498 20.1984 18.3578 20.2401C18.5658 20.2818 18.782 20.241 18.9598 20.1265C19.1376 20.012 19.2626 19.833 19.3078 19.6282C19.353 19.4234 19.3147 19.2093 19.2013 19.0321C18.0522 17.291 16.4749 16.0176 14.6634 15.3136C16.1165 14.4214 17.152 12.9966 17.5429 11.3516C17.9338 9.70661 17.6482 7.97565 16.7486 6.53831L21.2037 5.07245C21.3646 5.01952 21.5046 4.91794 21.6037 4.7821C21.7029 4.64626 21.7563 4.48304 21.7563 4.31558C21.7563 4.14812 21.7029 3.9849 21.6037 3.84906C21.5046 3.71322 21.3646 3.61164 21.2037 3.55871V3.55373ZM16.1013 9.89485C16.1015 10.6516 15.9201 11.3976 15.5718 12.0716C15.2236 12.7457 14.7184 13.3286 14.0979 13.7725C13.4773 14.2164 12.759 14.5088 12.0019 14.6255C11.2448 14.7422 10.4704 14.6799 9.74239 14.4439C9.01435 14.2078 8.35336 13.8047 7.81366 13.2675C7.27395 12.7303 6.8709 12.0744 6.63759 11.3536C6.40427 10.6328 6.34734 9.86766 6.47145 9.12093C6.59557 8.3742 6.8972 7.66717 7.35159 7.05785L10.9989 8.25448C11.1647 8.30907 11.344 8.30907 11.5099 8.25448L15.1572 7.05785C15.7709 7.87956 16.1017 8.87384 16.1013 9.89485Z" fill="#292382" fill-opacity="0.5"/>
</svg>
