<svg width="24" height="24" viewBox="0 0 24 24" fill="none" xmlns="http://www.w3.org/2000/svg">
<path d="M14 3.5C17.771 3.5 19.657 3.5 20.828 4.745C21.999 5.99 22 7.993 22 12C22 16.007 22 18.01 20.828 19.255C19.656 20.5 17.771 20.5 14 20.5H10C6.229 20.5 4.343 20.5 3.172 19.255C2.001 18.01 2 16.007 2 12C2 7.993 2 5.99 3.172 4.745C4.344 3.5 6.229 3.5 10 3.5H14Z" stroke="#292382" stroke-width="1.5" stroke-linecap="round" stroke-linejoin="round"/>
<path d="M5 15.5C6.609 13.363 10.354 13.246 12 15.5M15 9.5H19M15 13.5H17M10.249 10.25C10.249 10.7141 10.0646 11.1592 9.73644 11.4874C9.40825 11.8156 8.96313 12 8.499 12C8.03487 12 7.58975 11.8156 7.26156 11.4874C6.93337 11.1592 6.749 10.7141 6.749 10.25C6.749 9.78587 6.93337 9.34075 7.26156 9.01256C7.58975 8.68437 8.03487 8.5 8.499 8.5C8.96313 8.5 9.40825 8.68437 9.73644 9.01256C10.0646 9.34075 10.249 9.78587 10.249 10.25Z" stroke="#292382" stroke-width="1.5" stroke-linecap="round" stroke-linejoin="round"/>
</svg>
