<svg width="24" height="24" viewBox="0 0 24 24" fill="none" xmlns="http://www.w3.org/2000/svg">
<path d="M1.80286 20.2361C1.80286 18.8435 2.35607 17.5079 3.34081 16.5232C4.32554 15.5384 5.66113 14.9852 7.05375 14.9852H17.5555C18.9482 14.9852 20.2838 15.5384 21.2685 16.5232C22.2532 17.5079 22.8064 18.8435 22.8064 20.2361C22.8064 20.9324 22.5298 21.6002 22.0375 22.0926C21.5451 22.585 20.8773 22.8616 20.181 22.8616H4.4283C3.73199 22.8616 3.0642 22.585 2.57183 22.0926C2.07947 21.6002 1.80286 20.9324 1.80286 20.2361Z" stroke="#292382" stroke-opacity="0.5" stroke-width="2.10036" stroke-linejoin="round"/>
<path d="M12.3046 9.73401C14.4796 9.73401 16.2428 7.97083 16.2428 5.79584C16.2428 3.62085 14.4796 1.85767 12.3046 1.85767C10.1296 1.85767 8.36646 3.62085 8.36646 5.79584C8.36646 7.97083 10.1296 9.73401 12.3046 9.73401Z" stroke="#292382" stroke-opacity="0.5" stroke-width="2.10036"/>
</svg>
