<svg width="25" height="25" viewBox="0 0 25 25" fill="none" xmlns="http://www.w3.org/2000/svg">
<path d="M12.4527 2.52344C17.9658 2.52344 22.4347 6.99239 22.4347 12.5055C22.4347 18.0185 17.9658 22.4875 12.4527 22.4875C6.93965 22.4875 2.4707 18.0185 2.4707 12.5055C2.4707 6.99239 6.93965 2.52344 12.4527 2.52344ZM12.4527 6.51624C12.188 6.51624 11.9341 6.62141 11.7469 6.80861C11.5597 6.99581 11.4545 7.24971 11.4545 7.51444V12.5055C11.4546 12.7702 11.5598 13.024 11.747 13.2112L14.7416 16.2058C14.9299 16.3876 15.182 16.4882 15.4437 16.486C15.7055 16.4837 15.9558 16.3787 16.1409 16.1936C16.326 16.0086 16.4309 15.7582 16.4332 15.4965C16.4355 15.2347 16.3349 14.9826 16.1531 14.7943L13.4509 12.0922V7.51444C13.4509 7.24971 13.3458 6.99581 13.1586 6.80861C12.9714 6.62141 12.7175 6.51624 12.4527 6.51624Z" fill="currentColor"/>
</svg>
