<svg width="22" height="20" viewBox="0 0 22 20" fill="none" xmlns="http://www.w3.org/2000/svg">
<path d="M9.36299 2.59119L1.25699 16.1252C1.08988 16.4146 1.00145 16.7427 1.0005 17.0768C0.999539 17.411 1.08609 17.7396 1.25153 18.0299C1.41698 18.3203 1.65555 18.5622 1.94353 18.7317C2.2315 18.9013 2.55884 18.9924 2.89299 18.9962H19.107C19.441 18.9923 19.7682 18.9011 20.056 18.7317C20.3438 18.5622 20.5823 18.3204 20.7477 18.0302C20.9131 17.74 20.9997 17.4116 20.9989 17.0776C20.9981 16.7435 20.9098 16.4155 20.743 16.1262L12.637 2.59019C12.4664 2.30869 12.2262 2.07593 11.9394 1.91439C11.6527 1.75284 11.3291 1.66797 11 1.66797C10.6709 1.66797 10.3473 1.75284 10.0605 1.91439C9.77378 2.07593 9.53353 2.30869 9.36299 2.59019V2.59119Z" 
stroke="currentColor" stroke-width="2" stroke-linecap="round" stroke-linejoin="round"/>
</svg>
