<svg width="35" height="27" viewBox="0 0 35 27" fill="none" xmlns="http://www.w3.org/2000/svg">
<path d="M18.75 26.25V18.75H23.75L17.5 11.25L11.25 18.75H16.25V26.25H10V26.1875C9.79 26.2 9.59 26.25 9.375 26.25C6.8886 26.25 4.50403 25.2623 2.74587 23.5041C0.98772 21.746 0 19.3614 0 16.875C0 12.065 3.6375 8.145 8.305 7.6075C8.71424 5.46824 9.85613 3.53844 11.5343 2.15002C13.2124 0.761594 15.3219 0.00133504 17.5 0C19.6784 0.00120416 21.7882 0.761362 23.4668 2.14976C25.1454 3.53815 26.2878 5.46802 26.6975 7.6075C31.365 8.145 34.9975 12.065 34.9975 16.875C34.9975 19.3614 34.0098 21.746 32.2516 23.5041C30.4935 25.2623 28.1089 26.25 25.6225 26.25C25.4125 26.25 25.21 26.2 24.9975 26.1875V26.25H18.75Z" fill="currentColor"/>
</svg>
