<svg width="23" height="15" viewBox="0 0 23 15" fill="none" xmlns="http://www.w3.org/2000/svg">
<path fill-rule="evenodd" clip-rule="evenodd" d="M3.45 0C2.535 0 1.65748 0.338647 1.01048 0.941443C0.363481 1.54424 0 2.3618 0 3.21429V11.7857C0 12.6382 0.363481 13.4558 1.01048 14.0586C1.65748 14.6614 2.535 15 3.45 15H14.95C15.865 15 16.7425 14.6614 17.3895 14.0586C18.0365 13.4558 18.4 12.6382 18.4 11.7857V10.0864L21.0369 12.5432C21.1978 12.693 21.4027 12.795 21.6257 12.8363C21.8488 12.8777 22.0799 12.8564 22.2901 12.7754C22.5002 12.6943 22.6797 12.557 22.8061 12.3808C22.9325 12.2047 23 11.9976 23 11.7857V3.21429C23 3.00241 22.9325 2.79531 22.8061 2.61915C22.6797 2.443 22.5002 2.30571 22.2901 2.22463C22.0799 2.14356 21.8488 2.12234 21.6257 2.16366C21.4027 2.20498 21.1978 2.30699 21.0369 2.45679L18.4 4.91357V3.21429C18.4 2.3618 18.0365 1.54424 17.3895 0.941443C16.7425 0.338647 15.865 0 14.95 0H3.45Z"
 fill="currentColor"/>
</svg>
