<svg width="22" height="22" viewBox="0 0 22 22" fill="none" xmlns="http://www.w3.org/2000/svg">
<path d="M8.772 3.25025C8.89973 3.12261 9.05139 3.02142 9.21829 2.95247C9.38519 2.88353 9.56404 2.84818 9.74462 2.84846C9.9252 2.84874 10.1039 2.88464 10.2706 2.9541C10.4373 3.02356 10.5887 3.12522 10.716 3.25325L15.97 8.53525L15.525 7.44025C14.965 6.06025 16.531 4.79025 17.765 5.62125C17.955 5.74825 18.112 5.91625 18.226 6.11125L20.606 10.1873C21.407 11.5592 21.731 13.1579 21.5275 14.7334C21.324 16.309 20.6043 17.7728 19.481 18.8962L18.637 19.7402C17.2886 21.0886 15.4599 21.8461 13.553 21.8461C11.6461 21.8461 9.81738 21.0886 8.469 19.7402L3.435 14.7052C3.17992 14.4469 3.0374 14.0981 3.03852 13.735C3.03964 13.3719 3.18432 13.024 3.44099 12.7672C3.69766 12.5104 4.04548 12.3656 4.40855 12.3643C4.77163 12.363 5.12049 12.5053 5.379 12.7603L6.983 14.3643L7.514 13.8333L3.824 10.1432C3.56892 9.88487 3.4264 9.53608 3.42752 9.17301C3.42864 8.80993 3.57332 8.46204 3.82999 8.20524C4.08666 7.94844 4.43448 7.80358 4.79755 7.80227C5.16063 7.80096 5.50949 7.94331 5.768 8.19825L9.458 11.8883L9.988 11.3582L4.932 6.30125C4.79741 6.17526 4.68952 6.0235 4.61476 5.85498C4.54001 5.68645 4.4999 5.50462 4.49683 5.32029C4.49377 5.13595 4.5278 4.95289 4.59691 4.78197C4.66602 4.61105 4.76879 4.45578 4.89912 4.32539C5.02945 4.19499 5.18467 4.09214 5.35555 4.02294C5.52643 3.95374 5.70948 3.91962 5.89381 3.92259C6.07815 3.92556 6.26 3.96557 6.42856 4.04024C6.59712 4.11491 6.74894 4.22272 6.875 4.35725L11.932 9.41425L12.462 8.88425L8.771 5.19225C8.64346 5.06475 8.54229 4.91337 8.47327 4.74677C8.40424 4.58016 8.36872 4.40159 8.36872 4.22125C8.36872 4.04091 8.40424 3.86234 8.47327 3.69573C8.54229 3.52913 8.64346 3.37775 8.771 3.25025M16.435 0.15625L17.258 0.72325C18.4644 1.55626 19.5094 2.60158 20.342 3.80825L20.909 4.63125L19.263 5.76625L18.695 4.94225C18.0004 3.93633 17.1289 3.06487 16.123 2.37025L15.299 1.80225L16.435 0.15625ZM1.646 15.4543L2.214 16.2782C2.90892 17.2843 3.78072 18.1557 4.787 18.8503L5.61 19.4183L4.475 21.0643L3.652 20.4972C2.44533 19.6646 1.40001 18.6197 0.567 17.4132L0 16.5893L1.646 15.4543Z" fill="#FFCD29"/>
</svg>
